<svg xmlns="http://www.w3.org/2000/svg" width="1684.813" height="1590.958" viewBox="0 0 445.773 420.941"><path d="M230.9 136.512c-.196-.197-.357-1.512-.357-2.923 0-1.992-.232-2.688-1.039-3.12-.725-.388-1.088-1.237-1.202-2.815-.14-1.917-.388-2.338-1.636-2.774-1.877-.657-4.283.976-4.676 3.172-.303 1.697-4.685 5.068-6.606 5.081-.63.005-1.484.224-1.9.487-.521.33-1.032.136-1.65-.628-1.038-1.28-1.968-.92-2.72 1.057-.505 1.331-.534 1.338-1.614.36l-1.1-.995 1.38-1.188c.76-.653 1.375-1.5 1.367-1.881-.019-.929-5.283-4.169-6.773-4.169-.65 0-1.773-.27-2.498-.6-1.054-.48-2.062-.374-5.052.535-2.055.624-4.36 1.134-5.123 1.134-1.597 0-1.691-.579-1.418-8.708.13-3.895-.005-4.878-.79-5.746-1.082-1.196-2.92-1.402-2.92-.328 0 .395-1.549 1.855-3.44 3.244-1.893 1.39-3.726 2.87-4.075 3.29-1.023 1.233-1.305.907-1.305-1.506v-2.273l-2.807-.161c-2.018-.117-2.806-.38-2.806-.936a.78.78 0 01.783-.774c.992 0 1.89-1.65 1.89-3.474 0-.774.257-1.888.571-2.475.777-1.45.096-2.152-3.257-3.358-3.21-1.154-3.774-.853-4.906 2.62-.643 1.974-.885 2.168-3.234 2.597-2.128.39-2.538.656-2.538 1.654 0 1.764-.526 1.986-1.988.836-1.003-.789-2.1-1.018-4.665-.974-3.43.058-4.572-.258-4.572-1.266 0-.346.62-.446 1.583-.253.88.176 1.736.068 1.929-.244.19-.308.904-.42 1.586-.25 2.358.593 2.867-.71 2.538-6.5-.35-6.15-.718-7.087-2.789-7.087-1.078 0-2.013-.551-3.172-1.87-.903-1.03-2.017-1.872-2.474-1.872-.457 0-1.047-.567-1.31-1.26-.264-.694-1.596-1.916-2.96-2.716-2.288-1.34-2.454-1.578-2.129-3.059.275-1.248.08-1.895-.872-2.909-.674-.717-1.29-1.96-1.37-2.762-.298-3.024-1.213-5.673-2.151-6.229-.534-.316-1.813-.696-2.842-.843-1.563-.223-1.898-.509-2.04-1.737-.15-1.311-.385-1.47-2.165-1.47-1.097 0-2.224-.207-2.503-.46-.28-.253-1.742-.891-3.25-1.419-2.705-.946-2.77-.943-4.582.177-1.653 1.021-1.95 1.057-2.96.35-1.946-1.363-3.347-4.21-3.347-6.801 0-2.586-.534-3.189-4.087-4.618-1.589-.639-1.863-.553-4.95 1.554-1.797 1.227-3.623 2.74-4.059 3.361-.62.884-.933.99-1.438.484-.356-.355-1.186-.646-1.845-.646-.658 0-1.358-.26-1.555-.578-.196-.318-.91-.439-1.588-.269-1.167.293-1.2.227-.633-1.275.519-1.374.442-1.75-.581-2.839-.931-.99-1.18-1.896-1.18-4.294v-3.04h-7.89c-7.7 0-7.925-.032-9.348-1.352-1.683-1.56-1.896-2.32-2.133-7.601-.153-3.39-.058-3.875.753-3.875 1.825 0 3.651-1.213 3.651-2.426 0-.652.38-1.501.846-1.887.465-.386 1.247-1.558 1.74-2.605.686-1.461 1.35-2.015 2.864-2.39 1.786-.442 2.237-.304 4.813 1.47 1.563 1.077 3.104 1.958 3.423 1.958 1.007 0 2.35-1.9 2.35-3.324 0-.753.429-1.898.952-2.544l.952-1.176 13.614 5.17c7.488 2.845 14.336 5.493 15.218 5.886 3.924 1.75 12.912 5.07 13.733 5.072.497.001 1.042-.22 1.211-.494.17-.274 3.196-2.258 6.727-4.41s7.6-4.635 9.042-5.517c6.668-4.078 12.588-7.474 12.872-7.383.172.055 2.21 1.222 4.53 2.593 3.914 2.314 4.404 2.47 6.792 2.153 1.97-.262 2.643-.163 2.867.42.161.42 2.487 1.684 5.168 2.808 3.89 1.631 5.414 2.612 7.535 4.85 2.182 2.302 3.082 2.868 5.023 3.16 1.938.29 2.646.147 3.92-.795.854-.632 2.272-1.292 3.15-1.468.878-.176 1.87-.649 2.203-1.05.975-1.176 1.54-.325.936 1.408-.495 1.42-.371 1.814 1.13 3.597a775.73 775.73 0 012.686 3.204c.55.662 1.522 1.203 2.161 1.203.64 0 1.836.722 2.66 1.604 1.013 1.084 2.012 1.603 3.083 1.603.871 0 2.278.526 3.126 1.169a69.24 69.24 0 001.613 1.203c.04.018.229.77.422 1.67.296 1.387.143 1.746-1.007 2.362-.809.433-1.357 1.192-1.357 1.879 0 1.192 2.02 3.477 3.072 3.477.329 0 .743.456.92 1.013.28.883.885 1.017 4.69 1.042 3.82.025 4.477.172 5.232 1.173.684.907 1.324 1.11 3.09.983 1.245-.09 2.513.125 2.875.487.995.995 3.889.781 4.925-.363.504-.557 1.346-.899 1.874-.76.527.137 1.332-.123 1.789-.58.711-.711.871-.72 1.126-.057.163.425 1.509 1.645 2.991 2.71 1.483 1.065 2.696 2.248 2.696 2.63 0 .381.916 1.06 2.035 1.507 1.119.448 2.36 1.207 2.758 1.686.522.63 1.181.775 2.375.524 1.35-.284 1.53-.22.984.35-.47.49-.669 2.905-.669 8.091 0 5.449.176 7.448.669 7.6.367.113 1.732.527 3.032.919 1.919.578 2.473 1.038 2.94 2.44.317.95 1.117 2.106 1.778 2.569.704.493 1.203 1.398 1.203 2.183 0 .738.263 1.832.584 2.433.423.789.423 1.253 0 1.675-.321.321-.584 1.263-.584 2.094 0 1.072-.349 1.645-1.203 1.974-2.137.826-3.715 3.034-4.004 5.605-.234 2.073-.027 2.805 1.446 5.1 1.658 2.583 1.72 2.885 1.734 8.37l.015 5.69-3.803 3.802-3.802 3.803-2.363-2.466c-1.867-1.948-3.547-2.956-8.015-4.804-3.11-1.286-5.656-2.62-5.658-2.965-.003-.345.596-1.342 1.331-2.216.735-.873 1.337-1.88 1.337-2.235 0-.356.541-1.34 1.203-2.186 3.683-4.711 3.723-4.782 3.122-5.506-.437-.526-.387-1.201.193-2.588.75-1.797.718-1.978-.787-4.35-1.71-2.698-2.947-3.066-6.335-1.885-2.168.756-2.742 1.876-2.742 5.353 0 2.163-.429 3.636-1.87 6.422-1.03 1.989-1.871 4.095-1.871 4.68 0 1.606-.86 1.832-3.354.88-1.967-.75-2.709-.772-5.734-.172-3.325.659-3.481.76-3.636 2.354-.09.916.452 3.423 1.203 5.572.75 2.149 1.364 4.549 1.364 5.334 0 1.452-1.663 3.494-2.315 2.842z" fill="#efa" stroke="#000" stroke-width=".5344515999999999"/><path d="M55.068 102.696c-1.594-1.48-2.544-2.976-3.225-5.08-.53-1.64-.82-3.217-.643-3.504.177-.286.017-1.067-.355-1.734-1.948-3.493-2.69-8.899-1.522-11.082.624-1.167-.134-1.966-2.127-2.242-.907-.125-1.391-.571-1.507-1.387-.136-.953-.516-1.203-1.833-1.203-.914 0-2.44-.281-3.39-.625-1.59-.574-1.671-.714-1.015-1.737.546-.85.642-2.736.408-7.981l-.307-6.869-1.97-2.486c-1.841-2.325-2.25-2.552-6.325-3.51-3.28-.773-4.66-.887-5.59-.463-1.424.648-4.88-.39-3.709-1.114 1.79-1.106-.176-4.55-2.162-3.788-1.355.52-5.975-.83-6.883-2.012-.48-.626-1.881-1.532-3.113-2.013-1.231-.482-2.239-1.087-2.239-1.345s1.04-.87 2.311-1.36c1.272-.489 2.55-1.405 2.84-2.036.8-1.74 2.978-1.468 4.282.534 1.494 2.293 3.745 3.56 4.95 2.788.512-.328.92-1.227.91-1.998-.02-1.336.11-1.403 2.74-1.403 1.803 0 2.993.279 3.428.802 1.082 1.304 3.02.961 4.24-.75.608-.854 1.105-1.79 1.105-2.078 0-.288.358-1.213.795-2.055.437-.842.65-1.987.474-2.545-.417-1.314-2.607-3.274-5.196-4.65-2.396-1.273-2.247-1.946.238-1.08 2.484.866 4.26.733 6.228-.467 1.486-.906 1.737-1.363 1.737-3.16 0-1.67-.298-2.319-1.448-3.157l-1.449-1.055 4.572-7.916c2.514-4.354 4.93-8.143 5.37-8.42 1.768-1.115 4.88.153 7.66 3.123 3.733 3.984 11.797 7.354 19.891 8.312 4.335.512 5.704.964 11.359 3.75 3.537 1.742 6.422 3.349 6.413 3.57-.01.222-.37.87-.802 1.441-.431.571-.784 1.593-.784 2.272 0 1.589-.357 1.542-2.902-.384-2.298-1.738-3.547-1.917-6.647-.95-1.683.526-2.443 1.277-4.268 4.222-1.22 1.97-2.22 3.822-2.22 4.115 0 .669-1.299 1.18-2.997 1.18-1.9 0-2.551 2.056-1.47 4.643.607 1.453.742 2.845.492 5.06l-.346 3.053 2.449 2.45 2.449 2.448 3.428-.548c1.885-.3 5.107-.391 7.16-.2l3.733.347.32 3.534c.176 1.944.452 4.588.612 5.874l.292 2.34-1.906-.358c-2.422-.454-3.696.235-5.537 2.995a656.283 656.283 0 01-2.958 4.387c-1.338 1.963-1.465 2.524-1.207 5.304.327 3.522-.263 5.077-2.862 7.548-.909.864-1.657 1.826-1.664 2.138-.006.313-.482 1.17-1.057 1.905-.575.735-1.05 2.006-1.057 2.825-.006.819-.36 2.021-.784 2.673-.425.65-.75 1.952-.721 2.892.028.94-.346 2.314-.832 3.054-.485.741-.882 1.844-.882 2.452 0 1.496-1.19 1.846-3.035.893-1.246-.645-1.7-.666-2.454-.114-.509.372-.926 1.052-.926 1.51 0 3.321-3.216 3.53-6.56.425z" fill="#e3e2db" stroke="#000" stroke-width=".5344515999999999"/><path d="M108.147 216.897c-.972-.491-1.428-1.284-1.718-2.98-.312-1.83-1.093-3.055-3.755-5.892-2.026-2.16-4.073-5.06-5.154-7.302-1.29-2.677-2.533-4.32-4.43-5.859-1.609-1.304-2.76-2.717-2.954-3.624-.324-1.518-4.59-5.73-5.805-5.73-.367 0-1.836-.797-3.266-1.772-3.225-2.199-6.53-3.537-10.35-4.191l-4.684-.804c-.96-.165-2.066-.034-2.458.291-.54.449-.947.333-1.679-.475-.531-.587-1.636-1.067-2.455-1.067-.82 0-1.638-.24-1.82-.535-.181-.294-1.75-.534-3.487-.534-1.736 0-4.188-.339-5.447-.753-1.26-.414-3.056-.91-3.991-1.104-.935-.192-1.974-.68-2.309-1.083-.335-.403-1.313-.888-2.175-1.077-.862-.19-1.567-.682-1.567-1.095 0-1.92-3.508-7.726-6.6-10.924-5.817-6.016-9.609-11.426-10.836-15.462-.498-1.639-1.109-3.208-1.356-3.488-.248-.279-.451-.81-.451-1.179 0-.37-.695-1.85-1.544-3.29-.85-1.44-1.715-3.436-1.923-4.434-.208-.998-.825-2.59-1.37-3.538-.917-1.595-.933-1.948-.215-4.704 1.104-4.238.978-6.035-.566-8.059l-1.341-1.758 1.208-1.272a46.67 46.67 0 002.138-2.435c.564-.705 1.53-1.163 2.456-1.163 1.617 0 2.945-1.135 3.513-3.003.189-.622.819-1.562 1.4-2.087 1.58-1.43 1.357-4.323-.548-7.136l-1.584-2.337 1.082-1.52c.868-1.219 1.37-1.463 2.536-1.23.96.193 2.384-.176 4.197-1.087 1.509-.757 3.143-1.377 3.632-1.377.49 0 1.874-1.083 3.079-2.406 1.204-1.323 2.624-2.405 3.157-2.405.532 0 1.247-.542 1.588-1.203.341-.662 1.088-1.717 1.659-2.345.91-1 1.242-1.067 2.666-.535 1.619.605 1.626.626 1.363 3.936-.195 2.44-.068 3.49.474 3.94.406.338.739 1.4.739 2.362 0 1.052.316 1.87.793 2.053.436.167.688.614.561.992-.423 1.26 2.627 8.249 4.589 10.512 1.814 2.093 2.151 2.251 5.466 2.56 4.154.389 5.162-.16 5.162-2.811v-1.79l1.94 1.318c1.068.724 3.39 1.845 5.162 2.491 2.856 1.041 3.09 1.232 2.072 1.687-1.793.8-3.928 4.835-3.502 6.618.436 1.822 1.164 2.783 2.591 3.419.6.267 2.115 1.092 3.366 1.832 1.775 1.051 2.5 1.226 3.306.795 1.801-.964 3.223-.604 5.128 1.301 1.296 1.297 1.853 2.338 1.853 3.468 0 1.324.32 1.748 1.78 2.358 2.572 1.075 4.244 3.348 3.493 4.75-.374.699-.465 2.837-.254 5.957.624 9.208.771 9.793 2.908 11.554 1.066.88 2.304 1.599 2.752 1.6 1.03 0 4.288 4.726 4.288 6.219 0 .713 1.384 2.36 3.81 4.532 3.13 2.804 4.345 3.536 6.815 4.108 1.653.383 3.603.586 4.332.451 1.584-.291 3.541.646 5.315 2.544 1.158 1.24 1.697 1.388 5.078 1.39 2.805.001 4.223.27 5.49 1.042l1.707 1.041-1.13 2.063-1.13 2.063 1.163 1.574c1.023 1.383 1.086 1.778.524 3.265-.777 2.06-.083 3.155 2.437 3.84l1.67.454-1.667.984c-.917.54-1.945 1.752-2.285 2.691-.388 1.072-1.21 1.954-2.208 2.367-1.256.52-1.59.99-1.59 2.237v1.577l-1.409-1.107c-2.99-2.353-6.61-.526-6.61 3.336 0 1.441.228 1.97.847 1.97 1.39 0 .539 1.256-1.15 1.696-.862.225-2.708 1.438-4.101 2.697-2.179 1.968-2.781 2.996-4.293 7.328-.968 2.771-1.992 5.113-2.277 5.203-.285.09-1.114-.136-1.841-.504z" fill="#e9afaf" stroke="#000" stroke-width=".5344515999999999"/><path d="M128.437 142.346c-1.612-1.396-3.028-2.769-3.146-3.05-.118-.281-1.02-1.34-2.005-2.354-.984-1.013-1.79-2.046-1.79-2.295 0-.827-1.385-.468-2.614.677-.895.834-1.124 1.48-.876 2.47.31 1.234.224 1.312-1.09.982-.97-.243-1.731-.08-2.383.51-.888.803-.982.79-1.29-.184-.572-1.8-4.55-2.3-6.643-.834-.955.669-1.5.736-2.39.295-.635-.314-2.52-.838-4.187-1.163-3.623-.707-4.338-1.441-4.47-4.584-.116-2.804-1.043-3.994-4.629-5.946-2.04-1.111-2.57-1.683-2.577-2.783-.006-.929-.781-2.13-2.35-3.646-1.997-1.928-2.776-2.312-5.293-2.607-2.255-.265-3.012-.582-3.211-1.345-.346-1.323-1.867-1.857-3.1-1.088-1.482.926-2.074.755-2.074-.598 0-1.478 1.398-3.594 2.375-3.594.892 0 2.436-2.306 2.436-3.64 0-1.246-1.621-2.774-2.944-2.774-.843 0-4.371-1.012-5.017-1.44-.115-.076.113-.526.506-1 .976-1.176 2.745-6.02 2.916-7.984.308-3.537 2.648-8.393 5.709-11.845 2.243-2.531 2.966-5.231 2.08-7.772-.571-1.64-.447-1.97 2.215-5.883 2.757-4.053 2.87-4.146 5.051-4.156 1.59-.008 2.688-.395 3.82-1.347 1.96-1.65 2.059-1.65 6.04.026 3.51 1.478 4.715 1.218 4.78-1.027.021-.708.933-1.793 2.416-2.875 2.669-1.946 2.836-1.985 4.743-1.116 1.19.542 1.361.95 1.361 3.256 0 1.827.328 3.054 1.07 3.995.587.748 1.068 1.808 1.068 2.357 0 .612.38.997.986.997.543 0 1.422.48 1.954 1.069 1.046 1.155 3.475 1.465 3.475.443 0-.345.366-1.032.814-1.527.736-.812 1.04-.826 3.13-.138 1.273.42 3.092 1.473 4.042 2.34 1.937 1.77 4.893 3.158 6.72 3.158 1.351 0 2.16 1.97 1.57 3.827-.413 1.3.638 4.003 1.717 4.417.518.2.67.679.442 1.398-.191.601-.186 2.046.01 3.21.334 1.976.477 2.115 2.162 2.115 1.468 0 2.045.353 3.091 1.894.708 1.041 2.34 2.568 3.628 3.393 1.287.825 2.799 2.018 3.359 2.65.56.633 1.462 1.15 2.004 1.15.756 0 .988.407.993 1.737.003.956.15 2.607.325 3.67.295 1.783.202 1.963-1.209 2.344-.84.226-2.563.36-3.828.297-2.95-.146-3.897.62-3.489 2.823.547 2.954 2.414 4.2 6.5 4.341 1.961.067 4.526.533 5.7 1.035 2.52 1.077 4.283.554 5.065-1.502.333-.877.988-1.361 1.994-1.477 1.177-.135 1.744-.686 2.651-2.577 1.473-3.07 3.047-3.31 3.283-.499.134 1.603-.057 2.006-1.203 2.528-1.115.508-1.363.992-1.363 2.668 0 2.784.965 3.943 3.336 4.01 1.837.053 1.925.137 1.638 1.569-.205 1.024-.001 1.846.63 2.542.894.99.876 1.043-.476 1.382-.773.195-2.06.228-2.86.075-2.105-.402-3.337.452-3.337 2.314 0 1.554-.056 1.586-2.806 1.602-1.561.01-3.248.351-3.8.77-.783.593-1.21.619-2.005.122-.772-.482-1.247-.484-2.011-.007-1.213.758-2.207-.004-2.207-1.692 0-.61-.382-1.656-.85-2.323-.467-.667-.703-1.593-.525-2.057.179-.465.103-1.115-.168-1.446-.27-.33-.576-1.201-.677-1.936-.132-.955-.567-1.39-1.522-1.522-.735-.101-1.648-.44-2.029-.754-1.11-.912-3.493 1.219-4.118 3.683-.294 1.16-1.063 2.778-1.71 3.596-.647.818-1.552 2.78-2.012 4.362-.46 1.58-1.073 3.021-1.363 3.2-.69.427-.684 3.846.007 4.273.956.59.567 1.196-.964 1.502-.825.165-2.388 1.114-3.475 2.11-1.592 1.457-1.975 2.19-1.975 3.775 0 1.082-.185 1.967-.41 1.967-.226 0-1.73-1.143-3.341-2.539z" fill="#2affd5" stroke="#000" stroke-width=".5344515999999999"/><path d="M300.133 151.725c.14-.982-.587-1.6-4.376-3.718-2.5-1.397-4.974-2.55-5.5-2.564-.527-.013-2.191.808-3.7 1.823-1.507 1.016-2.949 1.718-3.203 1.561-.254-.157-1.797-2.19-3.429-4.519-1.631-2.329-3.127-4.245-3.323-4.258-.196-.014-1.795-1.332-3.554-2.93l-3.198-2.904 2.468-2.55c1.357-1.402 2.736-3.075 3.064-3.717.33-.646.597-3.747.597-6.939 0-5.685-.029-5.817-1.912-8.867-2.293-3.715-2.07-5.245 1.079-7.388 2.297-1.564 2.935-2.504 3.344-4.933.639-3.793-.573-9.018-2.387-10.288-.657-.46-1.193-1.086-1.193-1.391 0-1.325-2.263-3.66-3.546-3.66-2.841 0-3.403-.793-3.403-4.796 0-2.028.23-4.296.514-5.04.33-.868.329-1.467-.003-1.672-.61-.377 3.068-3.994 4.062-3.994.375 0 1.594-.963 2.708-2.139 1.544-1.63 2.434-2.138 3.741-2.138 1.214 0 2.159-.47 3.23-1.603 1.025-1.087 2.03-1.605 3.118-1.607.883-.002 2.223-.326 2.978-.72 1.835-.957 4.076-1.545 6.53-1.712 4.16-.284 6.38-3.057 5.233-6.533-.367-1.111-.721-3.457-.788-5.212-.067-1.756-.317-3.974-.555-4.93-.982-3.937 2.858-.825 4.817 3.904.48 1.16 1.355 3.192 1.944 4.515 2.263 5.087 2.478 5.66 2.711 7.216 1.019 6.803 5.874 22.93 7.395 24.563.26.279.473.832.473 1.228 0 1.249 7.145 15.098 11.239 21.783 2.16 3.528 5.457 8.4 7.326 10.825l3.399 4.41h-2.254c-1.394 0-2.647.356-3.285.934-.758.686-2.19.984-5.388 1.123-4.96.215-6.503 1.042-5.963 3.194.437 1.742-.999 3.236-3.494 3.635-1.09.174-3.152 1.2-4.582 2.282-3.299 2.493-8.274 9.452-8.008 11.2.335 2.2-1.244 7.217-2.676 8.501-1.696 1.522-2.464 1.53-2.25.025z" fill="#ffd5e5" stroke="#000" stroke-width=".5344515999999999"/><path d="M268.945 256.125c-4.485-3.649-8.257-5.76-13.867-7.762-2.763-.986-6.708-2.513-8.766-3.393-4.407-1.885-7.133-2.865-8.4-3.02-1.762-.216-3.093-1.984-3.093-4.11 0-1.856-.24-2.185-2.862-3.926-1.573-1.044-3.22-1.9-3.658-1.9-.438 0-2.217-.493-3.953-1.096-1.737-.604-5.804-1.677-9.038-2.385-8.162-1.787-14.406-3.363-18.129-4.575-3.476-1.133-6.579-1.305-9.325-.517-1.673.48-2.02.332-5.341-2.28a333.317 333.317 0 00-5.558-4.282c-1.102-.82-2.004-1.94-2.004-2.49 0-.55-.962-1.823-2.138-2.83-1.176-1.006-2.139-2.149-2.139-2.538 0-.39-.334-1.089-.743-1.553-.41-.464-.901-1.806-1.094-2.982-.328-2.01-.19-2.317 2.317-5.129 3.433-3.851 3.713-5.02 2.06-8.609-1.209-2.627-8.706-12.575-10.752-14.267-.813-.673-.821-.862-.085-1.986 1.164-1.775 1.023-2.608-.79-4.672-.882-1.005-1.603-2.307-1.603-2.893 0-.587-.301-1.312-.669-1.611-1.094-.89-7.847-2.794-9.915-2.794-4.605 0-18.816-9.017-18.816-11.938 0-.421-1.263-1.37-2.806-2.108-1.544-.738-3.528-2.105-4.41-3.04-1.568-1.659-3.735-2.91-5.88-3.396-.588-.132.057-.27 1.434-.303 2.315-.057 2.517-.173 2.678-1.532l.175-1.47.796 1.423c.438.782 2.433 2.761 4.433 4.397 5.115 4.183 9.555 5.17 8.686 1.93-1.203-4.481-.767-5.677 2.55-6.988 3.384-1.337 4.333-3.029 2.945-5.251-.491-.786-.446-1.386.21-2.8.46-.989.997-2.562 1.194-3.496.196-.934.943-2.082 1.66-2.552.716-.469 1.303-1.268 1.305-1.776.002-.508.25-1.815.553-2.904.39-1.402.78-1.893 1.334-1.68.43.165.783.606.783.98 0 .373.337.959.75 1.3 1.22 1.013 1.56 3.275.598 3.979-.596.436-.744 1.09-.51 2.26.28 1.397.75 1.8 3.086 2.653 4.1 1.494 7.576 1.59 9.27.258 1.798-1.414 2.422-1.372 4.405.296 2.027 1.706 2.125 3.504.308 5.663-1.29 1.533-1.764 3.11-.935 3.11.22 0 1.437.947 2.703 2.104 2.291 2.095 2.299 2.113 1.47 3.716-1.184 2.29-1.037 3.885.578 6.265.776 1.143 1.642 2.742 1.924 3.553.322.924 1.038 1.605 1.919 1.826 2.091.525 6.432 3.827 7.341 5.585.935 1.808 1.963 1.949 3.441.47.594-.594 1.782-1.069 2.673-1.069 1.41 0 1.604.186 1.604 1.538 0 2.135 1.233 3.079 2.98 2.283.74-.338 1.738-.613 2.216-.613.728 0 .687.196-.255 1.202-.654.7-1.196 2.097-1.296 3.341-.151 1.898-.373 2.204-1.972 2.72-.991.32-2.01.955-2.265 1.41-.255.455-1.669 1.601-3.143 2.547-1.474.946-2.68 1.94-2.68 2.21s-.632 1.446-1.405 2.613c-1.207 1.824-1.303 2.246-.68 2.996.398.48.654 1.538.568 2.351-.108 1.033.337 2.04 1.477 3.338.897 1.022 1.695 2.41 1.771 3.085.133 1.16-.055 1.233-3.438 1.356-4.534.165-4.914.406-4.475 2.837.192 1.065.58 3.445.86 5.288.515 3.387 3.08 9.822 4.187 10.506.33.204.604 1.018.609 1.81.01 1.834.35 2.294 2.791 3.778 1.751 1.063 2.575 1.192 6.66 1.04 4.269-.158 4.765-.07 5.883 1.05 1.496 1.5 2.243 1.185 5.443-2.287 1.956-2.122 2.253-2.748 2.105-4.444l-.172-1.975 4.543-.427c6.13-.575 5.935-.577 7.751.073 2.979 1.066 12.276 1.888 15.08 1.334 3.634-.719 3.89-.546 3.54 2.398-.273 2.314-.15 2.665 1.603 4.579l1.898 2.073 2.096-.839c1.566-.626 2.25-.685 2.704-.23.868.867.751 3.35-.194 4.135-1.174.974-.984 1.962.585 3.049 1.452 1.005 5.013 3.963 10.98 9.12 1.95 1.686 3.685 3.555 3.856 4.154.297 1.04 2.965 2.386 4.73 2.386.458 0 1.217-.541 1.685-1.203.849-1.197.857-1.197 1.703-.134.467.588.977 1.693 1.133 2.456.166.81 1.355 2.235 2.86 3.428 2.282 1.806 2.521 2.188 2.089 3.325-.269.706-.489 2.457-.489 3.89 0 1.434-.18 2.707-.4 2.828-.221.121-1.763-.887-3.426-2.24z" fill="#fca" stroke="#000" stroke-width=".5344515999999999"/><path d="M259.542 232.91c-1.737-1.997-3.253-2.244-4.099-.665l-.58 1.086-1.523-1.084c-.837-.596-2.658-2.112-4.046-3.369l-2.524-2.285-.069-4.265-.069-4.265-2.613-.165c-1.438-.092-2.867.087-3.177.397-.394.394-.926.221-1.776-.577-1.206-1.133-1.207-1.148-.184-2.45.943-1.199.961-1.415.21-2.56-1.694-2.587-3.174-3.097-6.934-2.387-2.525.476-3.84.489-5.1.05-.935-.326-2.968-.593-4.519-.593-2.277 0-3.146-.275-4.52-1.432-1.561-1.313-1.842-1.376-3.382-.762-.924.37-3.845.787-6.491.929-2.646.142-5.112.357-5.48.478-.412.135-.668 1.211-.668 2.812 0 2.104-.291 2.92-1.543 4.322l-1.543 1.729-1.756-1.068c-1.238-.753-2.026-.923-2.674-.576-.505.27-2.294.606-3.976.744-3.838.318-6.134-1.048-6.17-3.668-.013-1.018-.62-2.337-1.603-3.488-.87-1.018-1.582-2.266-1.582-2.774 0-.509-.24-1.073-.534-1.255-.294-.182-.535-1.535-.535-3.007 0-1.472-.26-3.162-.578-3.756-.317-.593-.446-1.21-.286-1.37.16-.161 1.981-.413 4.046-.56 2.09-.15 4.007-.574 4.324-.955.632-.762-.674-6.783-1.533-7.07-.261-.087-.902-.47-1.424-.852-.904-.661-.905-.76-.014-2.12.556-.849.827-1.991.668-2.821-.36-1.883.744-3.838 2.902-5.14.981-.592 1.982-1.417 2.223-1.833.24-.416 1.328-1.112 2.416-1.547 2.51-1.005 3.451-2.425 2.779-4.194-.389-1.021-.267-1.613.54-2.64.698-.887 1.043-2.156 1.043-3.838v-2.513l-1.738.27c-.955.148-2.261.439-2.902.645-1.022.33-1.186.156-1.336-1.414-.162-1.694-.294-1.799-2.459-1.955-1.263-.091-2.984.182-3.843.611-1.512.754-1.57.733-2.095-.77-.385-1.107-.892-1.547-1.779-1.547-.682 0-2.125-.601-3.207-1.336-1.081-.735-2.225-1.336-2.54-1.336-.317 0-.869-.662-1.228-1.47-.359-.809-1.073-1.934-1.586-2.5-1.28-1.412-1.703-2.97-.998-3.675.323-.323.587-1.564.587-2.758 0-1.7-.394-2.627-1.816-4.272-1.713-1.983-1.77-2.172-1-3.346.603-.921.71-1.834.41-3.506-.223-1.243-.435-3.463-.47-4.933l-.064-2.673 3.341-.159c3.12-.149 3.341-.243 3.341-1.434 0-.787.392-1.4 1.025-1.6.564-.18 2.093-1.338 3.398-2.575 1.305-1.238 3.16-2.703 4.122-3.257l1.75-1.006-.336 3.946c-.207 2.436-.08 5.175.335 7.154l.67 3.208 2.642-.172c1.453-.094 3.136-.443 3.739-.775.603-.332 2.823-.595 4.934-.584 4.672.026 6.883 1.129 6.372 3.181l-.643 2.587c-.277 1.118-.004 1.46 1.98 2.472 2.058 1.05 2.58 1.11 4.907.573 1.432-.33 3.555-.6 4.717-.6 1.666 0 2.705-.466 4.904-2.196 2.682-2.11 4.529-4.53 3.92-5.139-.408-.408.668-2.287 1.311-2.287.304 0 .468 1.201.382 2.806-.144 2.707-.097 2.812 1.32 2.975 1.398.161 1.47.309 1.47 3.009 0 4.394 1.78 5.087 5.349 2.083 1.406-1.183 1.6-1.69 1.6-4.175 0-1.903-.45-3.81-1.375-5.832-.757-1.653-1.296-3.416-1.2-3.919.3-1.552 3.488-1.856 6.987-.666 1.692.575 3.398 1.046 3.79 1.046.393 0 1.016-1.022 1.385-2.272.368-1.25 1.403-3.87 2.3-5.824.993-2.165 1.756-4.879 1.954-6.949l.325-3.397h1.775c1.012 0 2.14.403 2.622.936.774.856.764 1.026-.12 2.003-.745.823-.846 1.34-.441 2.247.42.942.233 1.611-.941 3.35-.806 1.195-1.963 2.622-2.57 3.17-.606.55-.984 1.19-.839 1.424.145.234-.478 1.683-1.384 3.22-1.586 2.689-1.611 2.827-.677 3.701.534.5 3.497 1.943 6.584 3.208 4.538 1.86 6.088 2.796 8.094 4.89 2.174 2.265 2.754 2.587 4.664 2.587 1.892 0 2.668.42 5.848 3.156 2.017 1.736 4.484 4.442 5.482 6.014.998 1.571 2.122 3.177 2.497 3.567.376.39.93 1.172 1.233 1.737.8 1.495 1.796 1.285 5.35-1.128l3.174-2.156 3.276 1.755c1.803.965 3.394 2.058 3.537 2.427.143.37-.127 1.264-.6 1.986-1.422 2.169-1.12 2.953 1.143 2.971 1.621.013 1.826.12 1.07.561-1.543.898-1.114 2.424.956 3.406 1.041.494 2.74 1.642 3.776 2.551 1.699 1.492 2.36 1.693 6.793 2.07 2.701.228 5.456.284 6.121.122.665-.161 1.553-.008 1.973.34.42.348 1.318.556 1.997.46 1.002-.14 1.267.105 1.404 1.298.107.93.858 1.996 2.046 2.902 1.65 1.259 1.838 1.639 1.554 3.154-.272 1.451-.042 2.02 1.462 3.615 1.597 1.694 2.034 1.875 4.157 1.727 2.31-.16 5.156-1.196 7.049-2.564.695-.503 1.176-.525 1.87-.089.718.45.973 1.46 1.092 4.32.154 3.72.147 3.74-2.406 7.107-1.408 1.857-2.917 3.882-3.353 4.498-.436.617-1.94 2.618-3.341 4.447-1.92 2.506-2.548 3.786-2.548 5.193 0 1.612-.55 2.414-4.029 5.882l-4.028 4.016-8.934.146c-8.82.145-8.937.162-9.106 1.355-.102.718-.862 1.563-1.87 2.081-.936.48-2.449 1.734-3.364 2.787-1.544 1.776-1.767 1.866-3.099 1.26-.789-.36-2.458-.655-3.708-.655-2.166 0-2.33-.114-3.443-2.405-.975-2.008-1.418-2.406-2.68-2.406-1.64 0-4.011 2.108-4.612 4.099-.595 1.975-2.457 3.92-3.753 3.92-1.912 0-4.689 1.379-6.319 3.139-1.062 1.147-2.349 1.785-4.543 2.255-1.684.36-3.273.839-3.53 1.064-.257.225-.617 1.697-.801 3.27l-.335 2.861z" fill="#dbe3e2" stroke="#000" stroke-width=".5344515999999999"/><path d="M391.952 280.342c-1.417-.572-2.91-3.32-3.341-6.152l-.326-2.138-3.695-.408c-4.416-.488-5.19-.998-4.763-3.136.235-1.174.023-1.892-.82-2.79-.83-.882-1.102-1.78-1.008-3.315.115-1.861-.056-2.199-1.474-2.913-4.243-2.137-7.731-4.624-10.27-7.323-1.756-1.867-3.076-2.851-3.57-2.662-2.74 1.051-4.447.96-5.98-.323-.859-.718-2.162-1.494-2.897-1.724-1.294-.405-3.108-1.533-6.895-4.287-.999-.726-2.243-1.32-2.765-1.32-1.197 0-4.239 2.52-4.239 3.511 0 .667-.567.894-3.877 1.55-.515.101-1.445-.226-2.065-.728-1.104-.895-1.125-1.233-1.04-16.674.049-8.668-.07-16.173-.264-16.677-.283-.738-1.04-.917-3.88-.917h-3.529l2.162-2.272c3.454-3.63 4.475-5.24 4.475-7.058 0-1.15.576-2.385 1.774-3.803a71.888 71.888 0 003.44-4.507c.916-1.323 2.295-3.118 3.064-3.99 2.9-3.285 3.591-4.959 3.72-8.994.068-2.169-.16-4.438-.521-5.19-.979-2.034-1.434-5.212-.802-5.602.303-.188.55-.737.55-1.222s.891-1.793 1.98-2.908c2.622-2.686 2.014-3.211-3.647-3.15-4.21.044-4.54.135-6.063 1.657-1.397 1.397-1.522 1.75-.948 2.668.363.583.66 1.446.66 1.92 0 .472.484 1.539 1.075 2.369l1.075 1.509-1.412 1.11c-1.855 1.46-5.536 2.452-6.606 1.782-.494-.309-.918-1.625-1.08-3.35-.241-2.556-.44-2.924-1.993-3.687-1.257-.617-1.728-1.213-1.737-2.198-.02-2.237-1.43-3.727-3.524-3.727-1.016 0-2.308-.287-2.87-.638-.793-.495-1.338-.495-2.424 0-.77.35-2.9.638-4.73.638-3.055 0-3.566-.177-6.177-2.138l-2.845-2.138h1.938c1.588 0 2.031-.247 2.459-1.371.803-2.113.65-3.974-.325-3.974-.47 0-.722-.298-.567-.669.154-.367.67-1.99 1.147-3.608.477-1.617 1.124-3.465 1.44-4.106.314-.642.42-1.561.236-2.043-.395-1.028 1.357-3.585 5.22-7.615 2.311-2.413 2.97-2.807 4.702-2.807 2.536 0 4.988-2.07 6.012-5.078l.728-2.138 4.434-.157c2.44-.086 4.706-.382 5.037-.656.334-.277 2.19-.352 4.158-.168 2.979.278 3.694.543 4.408 1.633.47.716 2.464 3.147 4.433 5.403 1.969 2.256 4.884 5.785 6.477 7.843a280.4 280.4 0 005.87 7.274c1.633 1.943 4.414 5.514 6.178 7.937 5.404 7.421 7.927 9.049 11.723 7.562 1.532-.6 3.492-.094 3.145.812-.709 1.846 2.01 5.985 12.392 18.86 2.94 3.648 6.455 8.098 7.809 9.89 3.024 4 4.59 5.42 6.465 5.863 1.06.25 1.816 1.085 2.848 3.144 2.599 5.185 6.017 8.45 8.035 7.675.405-.155 1.814.194 3.13.776 2.866 1.268 5.833 1.741 10.335 1.65 2.862-.058 3.34.067 3.34.876 0 1.148 3.32 4.657 5.575 5.893l1.642.9-1.964.163c-2.54.212-3.481 1.28-2.679 3.041.373.817.402 1.42.079 1.62-.283.174-.514.904-.514 1.622 0 1.19-.212 1.305-2.406 1.305-1.323 0-2.405-.24-2.405-.535 0-.294-.951-.534-2.114-.534-2.016 0-2.131-.092-2.486-1.984-.358-1.905-1.961-3.841-3.213-3.878-1.263-.038-3.451-2.261-3.152-3.204.453-1.428-.94-2.208-3.815-2.137-3.238.08-6.09-.474-7.137-1.387-1.598-1.392-3.725-1.887-5.046-1.174-1.782.96-3.782 3.557-4.546 5.9-.56 1.716-.53 2.222.19 3.322.468.713.85 2 .85 2.858 0 1.092.418 1.835 1.394 2.474.766.502 1.187 1.092.935 1.31-.252.219-2.252.816-4.444 1.327-2.193.512-4.418 1.161-4.945 1.443-.9.482-.958 2.029-.958 25.617 0 13.808-.18 25.09-.401 25.07-.22-.018-.916-.24-1.545-.495z" fill="#ffe6d5" stroke="#000" stroke-width=".5344515999999999"/><path d="M392.102 331.644c-1.724-2.048-2.313-4.143-1.487-5.285 1.235-1.708 1.271-2.3.228-3.701-.916-1.23-1.576-1.475-4.75-1.761-2.196-.199-4.12-.108-4.754.222-.587.306-2.872.573-5.079.593-3.134.028-4.486-.216-6.184-1.119a17.125 17.125 0 01-6.57-6.164c-.668-1.094-2.766-3.351-4.663-5.016-1.896-1.666-3.577-3.544-3.736-4.174-.297-1.184-4.071-3.524-5.679-3.522-.498 0-1.757-.501-2.799-1.116-1.473-.869-2.368-1.037-4.03-.756-1.99.336-2.177.258-2.737-1.154-1.109-2.795-1.377-3.115-3.475-4.146-1.428-.7-3.317-1.043-5.96-1.08l-3.87-.055-3.08-3.005c-3.285-3.207-5.756-4.722-7.702-4.722-.935 0-1.06-.143-.561-.642 1.167-1.167.71-2.588-1.096-3.414-.955-.437-2.94-1.75-4.41-2.92-1.47-1.168-3.635-2.387-4.81-2.709-2.875-.785-5.73-3.54-5.345-5.153.611-2.555-3.848-7.613-6.712-7.613-.796 0-1.933-.58-2.666-1.36-1.743-1.855-3.92-1.632-4.156.425-.093.808-.333 1.468-.534 1.467-1.706-.014-4.582-1.527-6.951-3.655-2.37-2.129-2.895-2.933-3.149-4.828-.244-1.819-.069-2.594.874-3.868 1.47-1.99 1.255-3.326-.593-3.678-1.563-.299-4.712-2.86-4.712-3.834 0-.337-.614-1.418-1.364-2.401-1.475-1.934-3.155-2.279-5.945-1.218-1.297.493-1.63.406-2.487-.652-.976-1.206-.972-1.228.317-1.658 1.56-.52 2.53-2.43 2.53-4.983 0-1.304.28-1.953.935-2.162a28.66 28.66 0 002.005-.751c.588-.25 1.55-.586 2.138-.75.588-.163 2.122-1.26 3.408-2.439 1.94-1.775 2.717-2.142 4.544-2.142 1.872 0 2.426-.278 3.674-1.842.809-1.013 1.47-2.108 1.47-2.432 0-.938 1.583-3.744 2.112-3.744.265 0 1.045 1.022 1.734 2.272 1.108 2.01 1.529 2.313 3.648 2.633 1.317.199 3.695.38 5.284.4 2.7.038 3.016-.098 4.836-2.07 1.072-1.16 2.603-2.36 3.402-2.663.8-.304 1.686-1.163 1.97-1.909l.515-1.356 12.17.144 12.17.144.151 12.829c.083 7.056.022 13.355-.135 13.998-.209.852-.756 1.214-2.022 1.336-1.268.122-1.777.46-1.89 1.255-.12.826.31 1.256 1.789 1.79 1.07.387 2.859 1.645 3.975 2.795l2.029 2.09 3.808-.913c3.306-.794 3.944-1.146 4.849-2.68 1.24-2.1 2.733-2.279 4.137-.494.987 1.255 4.891 3.54 6.047 3.54.329 0 1.338.741 2.244 1.647 1.559 1.56 1.804 1.628 4.636 1.306l2.99-.34 3.19 3.237c1.755 1.78 3.582 3.238 4.06 3.238.478 0 1.285.46 1.793 1.02.508.562 1.53 1.174 2.27 1.36.95.238 1.25.587 1.019 1.188-.18.468.152 1.662.737 2.653.603 1.023 1.031 2.646.99 3.754-.101 2.68 2.407 4.992 5.416 4.992 2.84 0 3.774.441 3.794 1.794.033 2.115 2.841 6.392 4.486 6.832.834.223 2.064.92 2.733 1.548.983.924 1.423 1.032 2.3.562.596-.319 2.022-.58 3.167-.58 1.658 0 2.225.265 2.778 1.297.664 1.242 6.492 5.11 7.718 5.124.323.004 1.131.846 1.795 1.871.933 1.44 1.57 1.864 2.796 1.864 2.763 0 5.857 1.557 6.226 3.134.181.775 1.059 2.182 1.95 3.125 1.814 1.923 1.567 2.742-1.167 3.875-.833.345-1.822 1.202-2.198 1.904-.79 1.478-3.543 2.93-5.554 2.93-.764 0-1.838.448-2.387.997-.549.549-2.115 1.165-3.482 1.37-1.868.28-2.945.848-4.347 2.292-2.093 2.155-2.216 2.618-1.038 3.92.753.832.687 1.05-.743 2.48-.863.863-2.22 1.995-3.014 2.516-1.535 1.006-1.562 1.39-.51 7.405.339 1.937.299 2.005-1.204 2.005-.856 0-1.81.255-2.122.566-.4.4-.984.072-1.978-1.11z" fill="#fff6d5" stroke="#000" stroke-width=".5344515999999999"/><path d="M376.258 382.616c-4.114-2.416-6.95-4.965-6.932-6.231.02-1.413.907-2.644 2.523-3.504.662-.353 1.825-1.868 2.585-3.368 1.835-3.622 1.473-5.283-2.212-10.147-1.97-2.602-2.748-4.037-2.384-4.401.866-.866.63-2.167-.64-3.53-.74-.795-.95-1.343-.561-1.473 1.135-.378 3.345-2.342 3.353-2.98.004-.346-1.62-2.13-3.608-3.965-3.796-3.501-5.99-4.264-7.01-2.439-.476.85-.645.846-2.654-.06-1.18-.532-2.423-.796-2.762-.586-.37.229-.732-.06-.906-.724-.305-1.168-.773-1.392-4.152-1.993-1.159-.206-2.928-.858-3.93-1.45-1.69-.997-1.8-1.221-1.499-3.101.302-1.885.173-2.148-1.85-3.774-2.852-2.291-6.714-3.342-8.368-2.276-.651.42-1.477.763-1.836.763-.36 0-1.15.462-1.756 1.027-.923.858-1.491.955-3.458.59-4.013-.742-6.466.745-6.466 3.919 0 .936.83 2.055 2.797 3.777 1.539 1.345 2.982 2.447 3.208 2.447.225 0 .418.781.429 1.737.01.955.31 2.237.668 2.847 1.105 1.89 6.701 6.599 8.258 6.95 5.15 1.16 5.862 1.49 8.026 3.723 1.917 1.977 2.272 2.683 2.272 4.52 0 1.197.386 2.765.857 3.485.66 1.007.736 1.658.328 2.828-.321.92-.34 1.859-.047 2.382.58 1.036-.012 6.807-.698 6.807-.266 0-1.375-.448-2.466-.996-1.09-.547-3.306-1.423-4.923-1.944-1.617-.522-4.028-1.494-5.357-2.159-6.09-3.048-13.012-4.388-18.163-3.517-2.502.423-3.183.349-4.577-.503-.9-.55-1.975-1.631-2.387-2.402-.413-.772-2.202-2.631-3.976-4.134-1.774-1.502-5.171-4.599-7.55-6.882-2.379-2.284-4.965-4.395-5.746-4.692-1.819-.691-1.868-2.432-.142-4.975.703-1.037 1.446-2.875 1.65-4.084.393-2.325.75-2.515 4.208-2.238 2.084.167 4.088-1.772 4.088-3.956 0-.919.224-1.9.499-2.179.274-.279.575-1.47.668-2.646.138-1.747.389-2.169 1.371-2.308 1.602-.228 2.272-2.661.99-3.598-.498-.364-1.408-.53-2.021-.37-.935.244-1.032.14-.596-.638.54-.964 3.4-2.873 6.472-4.32 2.37-1.117 2.21-3.178-.38-4.918-1.055-.71-1.46-1.22-.967-1.22 1.335 0 1.515-.8.79-3.51-.4-1.497-1.161-2.836-1.879-3.306a2.652 2.652 0 01-1.205-2.226c0-.79-.276-1.71-.613-2.048-.917-.916-1.26-8.256-.457-9.757.612-1.142.479-1.392-1.672-3.152-1.285-1.052-2.938-2.538-3.673-3.303-.735-.765-3.11-3.234-5.279-5.486-2.168-2.253-4.387-4.095-4.93-4.095-.575 0-1.364-.727-1.886-1.738-.493-.955-1.762-2.53-2.82-3.501l-1.923-1.765 2.18.348c1.686.27 2.39.138 3.108-.58.693-.692 1.082-.773 1.535-.32.334.334 1.176.607 1.872.607 2.97 0 4.894 1.996 4.919 5.1.014 1.83.37 2.507 2.326 4.427 1.27 1.246 3.202 2.512 4.294 2.813 2.145.593 6.76 3.482 6.76 4.232 0 .254.502.62 1.115.815.879.279 1.043.638.776 1.702-.432 1.718.97 3.36 2.87 3.363 1.83.003 4.208 1.5 7.07 4.453 1.625 1.677 3.065 2.598 4.74 3.03 1.323.341 2.969.982 3.657 1.423 1.032.662 1.53.688 2.83.15 2.28-.945 4.204.015 4.204 2.095 0 1.249.365 1.728 1.855 2.435 1.02.484 2.686.825 3.7.756 1.015-.068 2.646.258 3.624.725.978.467 2.672 1.228 3.764 1.692 1.168.496 2.568 1.724 3.4 2.982.78 1.177 1.852 2.278 2.384 2.446 1.131.36 3.804 3.285 6.258 6.85 3.221 4.68 9.326 7.43 15.72 7.081 1.935-.105 3.971-.428 4.525-.718.813-.425 4.186-.544 5.585-.197.166.041.2 1.481.075 3.2-.193 2.676-.025 3.443 1.167 5.332.766 1.214 2.006 2.608 2.755 3.1 1.185.776 1.541.796 2.734.158.754-.403 2.034-.664 2.845-.579 1.13.119 1.544-.113 1.775-.999.298-1.14.325-1.136 2.21.368 1.048.837 1.907 1.684 1.907 1.882 0 .198.89 1.521 1.98 2.94 1.712 2.23 1.997 3.01 2.102 5.755.067 1.746.405 3.704.751 4.351.53.991.436 1.44-.599 2.84-1.157 1.565-1.189 1.819-.54 4.352.65 2.536.61 2.852-.689 5.508-2.118 4.33-3.359 5.232-7.646 5.563l-3.645.281-4.876 4.925c-3.274 3.308-5.4 5.03-6.473 5.245-.879.176-2.375.973-3.325 1.773-1.419 1.193-1.673 1.724-1.424 2.968.372 1.86.145 1.867-2.878.093z" fill="#fea" stroke="#000" stroke-width=".5344515999999999"/><path d="M338.782 172.182c-.124-.26-.225-.611-.225-.781 0-.335-.34-1.099-.545-1.226-.235-.145-.524-1.023-.524-1.592 0-.406-.08-.637-.283-.82-.411-.37-.54-.797-.36-1.193.165-.36.874-.865 1.216-.865.113 0 .227-.055.251-.123.08-.22 3.38-.713 3.975-.594.35.07.387.115.267.338-.076.142-.284.314-.464.382-.179.068-.326.205-.326.305 0 .248-.568.761-.844.761-.182 0-.225.134-.228.702-.003.765-.371 1.734-.8 2.106-.221.191-.266.4-.266 1.23 0 1.07-.191 1.842-.456 1.842-.09 0-.264-.212-.388-.472z" fill="#dbe3e2"/><path d="M380.092 384.904c-.365-.104-.999-.412-1.804-.878a90.981 90.981 0 00-2.731-1.508 44.099 44.099 0 01-1.32-.727 17.886 17.886 0 01-2.242-1.633l-.355-.3v-.426l.099.08c1.476 1.186 2.777 2.08 4.58 3.143 1.65.974 2.426 1.339 2.712 1.277.05-.011.12-.056.155-.1.13-.165.118-.431-.061-1.435-.151-.845-.028-1.326.499-1.944.245-.288.856-.842 1.274-1.156.924-.694 2.061-1.263 3.046-1.525.731-.195 1.857-.968 3.382-2.324.94-.836 1.852-1.727 4.774-4.665l3.143-3.16.223-.022.223-.022-.457.445c-.695.676-1.295 1.25-1.977 1.89-.34.319-.728.695-.862.835-.305.319-.903 1.055-1.443 1.776-.935 1.247-1.619 1.951-2.305 2.372-.688.42-1.278.913-2.187 1.822-.762.763-1.1 1.046-1.445 1.21-.208.099-.294.119-.617.145a5.02 5.02 0 00-1.454.35c-1.925.76-3.818 2.343-3.818 3.192 0 .319.334 1.117.892 2.134.486.884.56 1.106.392 1.17-.104.04-.124.039-.315-.016z" fill="#a0a0a0"/></svg>