<svg xmlns="http://www.w3.org/2000/svg" width="192.533" height="134.467" viewBox="0 0 192.533 134.467"><path d="M59.772 133.752c-2.224-.674-4.584-1.823-5.488-2.674-.182-.17-.625-.477-.985-.68-.844-.476-1.855-1.837-2.052-2.763-.242-1.137.58-1.794 3.04-2.43 1.12-.29 2.525-.73 3.124-.98.598-.248 1.414-.52 1.813-.602 1.391-.287 6.186-2.802 7.58-3.975 1.168-.983 1.369-1.262 1.271-1.768-.063-.33-.362-.779-.664-.996-.665-.48-2.297-1.01-2.958-.96-2.305.174-4.453.85-6.476 2.04-1.973 1.161-5.568 3.365-5.693 3.49-.394.393-3.902 1.927-5.15 2.25-1.79.466-2.021.455-4.142-.205-2.583-.802-6.185-3.158-8.19-5.356a94.574 94.574 0 00-1.755-1.866c-.44-.452-1.308-1.535-1.928-2.408-.62-.872-1.262-1.72-1.427-1.885-.166-.165-.302-.435-.302-.601 0-.166-.259-.827-.576-1.47-.62-1.26-.585-2.049.092-2.049.233 0 .898.158 1.478.35.58.194 1.543.41 2.14.483 1.848.224 6.794.143 8.313-.136.795-.146 1.88-.311 2.41-.367 1.989-.207 10.934-2.26 12.29-2.82 1.838-.76 2.873-1.135 3.127-1.135.437 0 3.437-2.192 3.89-2.841.293-.422.323-.637.12-.867-.43-.487-3.1-.44-5.606.1-1.24.267-2.47.507-2.736.533-.397.039-1.182.186-2.59.487a.828.828 0 00-.242.084c-.075.057-.57.173-1.506.353l-3.132.6c-1.326.255-2.79.501-3.252.548-1.28.13-2.45.318-2.629.422-.088.052-.808.155-1.598.23-1.465.137-2.337.232-4.691.507-1.59.186-6.488.156-8.114-.05a64.638 64.638 0 00-1.766-.203c-2.585-.232-5.33-2.098-6.668-4.533-.337-.614-.741-1.236-.897-1.383-.155-.146-.458-.663-.672-1.149-.214-.486-.708-1.597-1.097-2.47-.617-1.378-.974-2.397-1.986-5.664-.116-.374-.34-1.61-.5-2.745-.326-2.327-.062-3.713.706-3.713.229 0 1.549.363 2.933.806 1.385.444 3.006.893 3.602.999.596.105 2.006.363 3.133.573 2.02.375 2.435.443 4.096.67a350.616 350.616 0 005.181.685c.398.05 1.266.19 1.928.311 1.366.25 3.74.488 8.041.804.844.062 2.362.187 3.374.278 2.387.214 6.495.23 8.413.031 2.178-.225 4.391-1.222 4.391-1.977 0-.451-.758-1.35-1.41-1.673-.35-.173-1.235-.62-1.964-.992a19.59 19.59 0 00-2.65-1.08c-.73-.22-1.434-.48-1.567-.576-.356-.259-15.12-4.823-15.543-4.806-.199.008-1.175-.217-2.169-.5-2.103-.599-3.965-1.042-4.82-1.146-.331-.04-2.208-.335-4.171-.654s-4.186-.638-4.94-.708a39.402 39.402 0 01-2.697-.367c-.729-.13-1.488-.237-1.687-.237-.198 0-.74-.11-1.205-.243-.463-.133-1.084-.268-1.379-.299-.844-.088-4.516-1.276-4.605-1.49-.044-.106-.23-.193-.413-.193-.183 0-.736-.331-1.228-.736-1.518-1.251-2.934-4.438-4.808-10.82C-.252 53.06-.534 48.506.982 50.223c.93 1.054 4.357 2.315 6.72 2.472.199.013.687.092 1.084.175.398.082 1.211.202 1.808.266 2.336.248 3.281.387 3.976.582.398.112 1.265.26 1.928.33.662.069 1.476.168 1.807.22 1.566.244 2.143.341 3.374.567.729.134 1.488.249 1.687.256.475.017 6.35 1.814 6.506 1.99.067.075.555.336 1.085.58.53.244 1.235.615 1.567.825.332.21 1.568.86 2.746 1.445 2.796 1.386 3.077 1.538 3.466 1.875.18.156.483.283.672.283.19 0 .345.09.345.2 0 .11.19.258.421.328.232.07 1.181.544 2.109 1.052 1.527.836 2.778 1.43 5.85 2.774.567.248 1.43.486 1.92.529 2.307.201 1.917-1.257-1.505-5.62-1.361-1.738-4.627-4.928-5.902-5.769-.841-.553-3.175-1.652-3.51-1.652-.159 0-.423-.153-.588-.34-.165-.187-.599-.34-.963-.34-.365 0-1.128-.154-1.695-.342-.568-.188-1.08-.297-1.14-.241-.06.056-.361.01-.672-.1-.31-.111-1.085-.253-1.722-.315s-2.08-.28-3.207-.485a503.443 503.443 0 00-3.012-.54 30.7 30.7 0 01-2.29-.53c-.728-.2-2.03-.538-2.891-.752-.862-.215-1.783-.512-2.048-.66-.265-.149-1.404-.554-2.53-.902-1.127-.347-2.167-.719-2.31-.825-.145-.106-.741-.349-1.326-.54a21.913 21.913 0 01-1.787-.67c-1.767-.795-3.483-1.482-3.7-1.482-.13 0-.272-.077-.316-.17-.044-.094-.514-.374-1.044-.623-1.536-.722-3.923-2.352-4.419-3.016-.89-1.194-1.18-2.571-.89-4.236.086-.498.2-1.212.253-1.586.142-1.01.323-2.16.488-3.103.081-.46.177-1.175.214-1.587.103-1.16.903-3.321 1.28-3.457.478-.173 1.147.215 1.755 1.018.287.379 1.08 1.085 1.764 1.57.683.484 2.25 1.602 3.482 2.483 1.233.882 2.295 1.603 2.361 1.603.067 0 .714.357 1.44.793.724.437 1.374.793 1.444.793.069 0 .358.204.643.454.284.249.66.453.833.453.174 0 .316.102.316.227 0 .124.114.226.253.226s.87.373 1.626.828c3.438 2.07 8.316 4.003 10.828 4.29 2.365.269 2.617-.828.608-2.648-1.343-1.216-5.005-3.603-5.528-3.603-.141 0-.402-.163-.578-.363a2.705 2.705 0 00-.813-.574c-.27-.116-1.305-.773-2.299-1.46a156.904 156.904 0 00-4.097-2.702c-1.259-.8-3.048-2.023-3.976-2.717a74.609 74.609 0 00-3.012-2.133c-1.992-1.308-4.99-4.105-5.404-5.041-.988-2.233 1.151-9.367 3.135-10.453.214-.117.71.187 1.483.907 2.691 2.509 5.052 4.05 5.95 3.884.247-.045.663-.354.926-.686.984-1.24-.033-2.229-2.294-2.229-2.196 0-4.793-2.353-4.609-4.176.076-.746 1.749-3.982 2.059-3.982.11 0 .2-.127.2-.283 0-.156.257-.564.57-.906.455-.497.776-.624 1.59-.624.56 0 1.306.146 1.658.324.352.178 1.833.859 3.29 1.512 1.459.654 2.706 1.249 2.772 1.322.066.073.547.336 1.07.584.521.248 1.657.848 2.524 1.334 1.457.817 4.447 2.336 6.573 3.34 1.172.553 3.659 2.337 5.021 3.602 2.491 2.313 3.685 4.107 4.818 7.244.785 2.174 1.09 4.454 1.222 9.15.028.973.19 2.149.36 2.613 1.22 3.33 4.414 8.008 5.943 8.704.978.446 1.496.194 1.891-.92.494-1.392.338-8.8-.272-12.862-.902-6.018-1.833-8.39-4.804-12.237-.574-.743-.644-.96-.388-1.205.257-.247.558-.182 1.732.373 3.508 1.658 4.498 2.031 5.813 2.191 1.364.166 4.783 1.308 5.328 1.78 2.903 2.512 6.474 9.833 7.125 14.607.074.537.188 1.06.255 1.161.126.192.417 2.802.445 3.98.022.959-.288 5.056-.454 6.005-.077.437-.14.946-.142 1.133-.002.187-.12.697-.262 1.133-.142.437-.285 1.013-.316 1.28a5.927 5.927 0 01-.228.993 6.802 6.802 0 00-.245 1.1c-.218 1.737-.37 2.746-.554 3.672-.199 1-.168 4.277.055 5.872.061.436.119 1.09.128 1.451.015.623.04.639.456.284.6-.51.813-.477 1.547.248.405.399.811 1.253 1.13 2.375.274.964.498 1.805.498 1.87 0 .28.59.069 1.566-.563 1.207-.78 1.243-.339-.369-4.532-1.157-3.01-1.209-3.211-1.364-5.303-.075-1-.01-1.75.177-2.08.162-.285.23-.674.153-.866-.079-.191-.036-.41.094-.485a.424.424 0 00.193-.404c-.025-.146.015-.42.088-.606.073-.187.543-1.462 1.043-2.833 1.082-2.963 3.65-7.772 5.301-9.931.651-.851 1.187-1.718 1.19-1.926.004-.209-.139-.991-.317-1.739a82.662 82.662 0 01-.438-1.926c-.417-2.06-2.369-6.4-3.275-7.28-.176-.171-.86-1.062-1.519-1.978-2.211-3.077-2.4-3.334-3.314-4.528-1.391-1.818-.707-2.097 1.513-.616.597.397 2.495 1.372 4.218 2.165 1.723.793 3.187 1.5 3.253 1.57.066.072 1.15.785 2.41 1.585 1.259.8 2.343 1.514 2.41 1.586.066.072.579.466 1.14.874l1.018.744 1.752-1.343c2.866-2.195 6.962-4.328 11.994-6.245.862-.328 1.968-.797 2.458-1.043.982-.492 1.157-.533 1.157-.27 0 .098-.314.353-.699.567-.727.403-1.002.805-2.753 4.015-1.454 2.664-3.13 7.466-3.679 10.537-.089.498-.227 1.008-.307 1.133-.08.124-.168.481-.197.793-.028.311-.157 1.127-.287 1.813-.297 1.567-.341 5.824-.063 5.986.115.067.159.367.098.668-.085.42.102.725.805 1.308 3.273 2.722 6.09 5.154 6.646 5.738.589.619.665.643.82.262.095-.231.074-2.983-.046-6.115s-.21-8.6-.2-12.153c.016-5.649.087-6.827.565-9.404.3-1.62.644-3.057.763-3.193.12-.136.148-.312.064-.391-.084-.08-.038-.274.102-.433.14-.158.264-.365.275-.458.036-.297.127-.595.363-1.19 2.164-5.464 5.736-9.533 10.864-12.378 3.035-1.684 7.869-3.208 12.17-3.837 1.656-.242 4.043-.644 5.303-.893 1.26-.25 2.48-.454 2.711-.454.798 0 .393.571-1.204 1.7-6.245 4.412-7.579 5.423-8.892 6.745-1.472 1.48-3.943 4.978-4.595 6.504-.188.44-.49 1.106-.672 1.48-.997 2.06-1.413 3.137-1.965 5.09-.336 1.189-.713 2.278-.838 2.42-.125.143-.207.347-.181.454.025.107-.022.347-.105.534-.265.595-1.087 4.794-1.379 7.043-.371 2.855-.197 9.753.276 10.922.19.471.81 1.363 1.378 1.983 1.135 1.24 1.867 1.422 3.166.79 2.135-1.038 5.072-6.934 5.675-11.39.089-.655.25-1.241.357-1.304.108-.062.14-.318.07-.568-.07-.25.004-.601.162-.781.16-.18.258-.666.22-1.079-.037-.413.016-.88.12-1.037.103-.157.165-.665.137-1.13-.028-.464.01-.996.084-1.183.073-.187.204-.748.289-1.247.085-.498.477-2.13.87-3.625 1.706-6.48 6.799-13.572 12.532-17.45l2.006-1.359 5.07-.012c3.055-.007 5.678-.125 6.602-.297 2.343-.437 2.927.043 1.341 1.102-2.98 1.993-4.117 3.084-6.135 5.892-1.761 2.452-4.075 7.15-5.467 11.104-1.466 4.162-1.809 6.06-1.184 6.547.84.655 2.118.057 6.38-2.985 1.745-1.246 3.74-3.667 4.24-5.148.748-2.211 2.583-6.41 3.214-7.354 3.307-4.946 8.959-8.273 15.597-9.183 1.06-.146 4.097-.661 6.748-1.146 9.773-1.787 12.114-1.856 12.765-.376.58 1.319 1.15 4.51.995 5.572-.342 2.346-2.653 3.327-6.711 2.85-.976-.115-1.492-.08-1.747.119-.56.437-.44 1.44.247 2.046.575.508.682.523 1.913.28 1.445-.284 5.083-1.718 5.714-2.25.476-.403 1.162-.329 1.4.15.093.188.295.569.448.848.342.622.377 6.189.046 7.181-.128.383-.293.977-.367 1.321-.074.344-.43.926-.791 1.295-.722.734-3.755 2.216-5.84 2.85-.728.223-2.734.86-4.457 1.417-1.723.557-4 1.238-5.061 1.514-1.06.275-3.446.91-5.302 1.41-1.855.5-4.56 1.186-6.009 1.525-3.586.838-5.92 1.956-5.92 2.833 0 .204.353.57.784.815.69.393 1.227.445 4.518.442 3.144-.003 4.213-.101 6.748-.616 6.475-1.315 12.893-2.998 14.097-3.695.265-.154 1.079-.46 1.808-.68.729-.222 1.723-.65 2.21-.951.486-.302 1.137-.515 1.445-.474.517.069.568.197.634 1.621.041.9-.129 2.511-.407 3.853-.263 1.268-.611 3.07-.773 4.005-.617 3.556-2.054 4.832-6.295 5.588-.435.077-.899.215-1.032.307-.538.37-6.218.884-13.736 1.242-4.15.198-13.024-.542-15.06-1.256-1.692-.593-8.43-.611-9.257-.025-.145.102-.968.42-1.83.706-2.175.723-3.608 1.425-6.265 3.068-2.902 1.795-4.881 3.554-4.775 4.244.226 1.479 4.928 1.004 20.078-2.03 2.749-.55 3.634-.626 7.23-.614 4.228.014 4.094-.002 15.663 1.817 5.373.845 7.85.939 9.633.367 1.565-.502 1.814-.474 1.814.2 0 .458-1.641 3.683-2.403 4.723-.235.322-1.433 2.012-2.663 3.757-3.642 5.17-5.989 7.676-7.892 8.425-2.022.797-7.08.61-13.3-.492-4.123-.731-9.636-1.444-13.423-1.738-4.23-.327-18.63-.488-19.24-.215-.264.119-1.566.273-2.891.343-3.641.192-5.904.886-5.904 1.81 0 .585 1.677 2.05 3.148 2.751 1.639.781 5.23 1.89 7.696 2.378 4.021.795 8.56 1.816 8.923 2.007.202.107 1.124.313 2.048.457.924.145 3.253.512 5.175.817 7.168 1.134 8.657 1.3 12.892 1.441l4.338.144.075.972c.061.806-.121 1.31-1.07 2.946-3.298 5.695-8.446 11.198-11.898 12.718-1.153.508-1.637.583-3.735.575-5.837-.022-13.984-3.198-26.236-10.23-1.044-.599-2.02-1.128-2.17-1.175-.148-.048-1.033-.529-1.965-1.07-.932-.54-2.141-1.13-2.687-1.311l-.992-.33-.085.719c-.046.395-.03 1.3.036 2.011.12 1.28.139 1.307 1.808 2.626 3.283 2.594 8.463 5.689 12.892 7.702 3.17 1.441 4.414 1.893 6.989 2.538 1.126.283 2.265.602 2.53.709.265.107 1.186.222 2.046.255 2.042.078 2.102.4.41 2.184-2.988 3.148-8.209 6.25-13.077 7.769-1.35.42-2.204.522-4.46.526l-2.79.005-1.306-.828a21.025 21.025 0 01-2.442-1.87c-.625-.573-1.186-1.041-1.247-1.041-.06 0-.083.476-.05 1.059.09 1.623-.75 5.54-1.282 5.965-.078.063-.352.522-.609 1.02-.639 1.24-3.426 3.807-4.861 4.477-2.069.966-4.104 1.38-6.72 1.37-1.326-.005-2.767-.067-3.204-.137-1.109-.178-3.655-.993-4.764-1.525-.512-.245-1.07-.446-1.24-.446-.171 0-.311-.102-.311-.226 0-.125-.137-.227-.305-.227-.168 0-.722-.21-1.232-.468-.51-.257-1.062-.419-1.225-.36-.175.063-.362.787-.457 1.77-.242 2.515-.387 3.581-.672 4.95a42.756 42.756 0 00-.562 3.172 67.958 67.958 0 01-.233 1.473c-.064.374-.177 1.19-.251 1.813-.227 1.91-.545 2.557-1.34 2.721-.388.08-.768.24-.844.356-.31.471-.637.186-.473-.414.093-.343.213-.98.266-1.417.053-.436.214-1.473.357-2.304.143-.83.293-1.85.334-2.266.04-.415.147-1.367.237-2.115.289-2.393.356-3.128.491-5.325.13-2.113.126-2.136-.234-1.246a24.473 24.473 0 01-.714 1.586c-.666 1.304-1.578 3.259-1.578 3.381 0 .068-.43.786-.957 1.595-.527.81-1.027 1.73-1.111 2.044-.084.314-.25.571-.367.571-.119 0-.215.128-.216.284 0 .155-.244.552-.542.88-.298.33-.867.99-1.265 1.468-.397.48-1.292 1.402-1.988 2.05-.696.65-1.265 1.29-1.265 1.422a.24.24 0 01-.236.241c-.13 0-.979.51-1.887 1.133-.908.624-1.765 1.133-1.904 1.133s-.835.246-1.547.546c-1.25.527-2.879.826-4.926.903-.552.02-2.063-.291-3.459-.714zm14.041-19.555c.733-.542 1.254-1.958 1.03-2.796-.2-.75-1.096-.971-2.256-.556-1.186.425-2.19 2.13-1.732 2.946.163.292.417.606.563.698.512.322 1.773.168 2.395-.292zm33.17-14.535c.532-.71.968-1.469.968-1.687 0-.387-1.126-1.668-1.467-1.668-.094 0-1.131.893-2.304 1.983l-2.134 1.983 1.31 1.165 1.311 1.164.674-.824c.37-.454 1.11-1.406 1.641-2.116zM95.418 86.294c0-.308-.538-.206-1.005.191-.768.654-.534 1.063.282.496.398-.277.723-.586.723-.687zM37.09 66.75c1.217-1.38-5.653-4.968-9.466-4.944-1.1.007-1.472.29-1.25.95.186.55 2.4 2.28 2.918 2.28.187 0 .34.089.34.197 0 .108.488.326 1.085.483.596.157 1.084.37 1.084.472 0 .103.407.25.904.33.497.077 1.175.227 1.506.331.987.312 2.564.257 2.879-.1zm116.52-10.918c2.922-.67 3.883-1.8 2.134-2.51-1.166-.472-5.415-.524-7.307-.089-1.944.447-3.615 1.359-3.615 1.973 0 1.092 5.148 1.46 8.788.626zm-60.162-8.705c-.143-.557-.422-1.166-.62-1.353-.319-.301-.343-.274-.216.24.198.798.888 2.322 1.003 2.214.052-.05-.023-.545-.167-1.101zm13.677-23.138c.925-1.682 1.714-6.705 1.019-6.487-1.036.324-2.8 6.023-2.268 7.327.127.312.217.326.528.083.206-.16.53-.576.721-.923zM32.3 23.887c.68-.771.124-3.265-.962-4.31-.391-.376-1.091-.793-1.556-.927-1.645-.475-2.253.67-1.575 2.964.538 1.821 3.191 3.295 4.093 2.273zm134.521-7.68c1.363-.535 2.57-2.623 2.237-3.869-.13-.488-.282-.555-1.26-.555-1.43 0-2.58.663-3.487 2.006-.732 1.086-.886 2.029-.404 2.481.397.374 1.885.342 2.914-.063z" style="fill: #131313;"/></svg>