<svg viewBox="0 0 564.69 298.34" xmlns="http://www.w3.org/2000/svg"><g fill="#8f8f8f" transform="translate(-3.3 -1.87)"><path d="m505.06 159c-.33 4.24-1.32 7.2-1.89 10.75-2.31 14.19-8.87 26.09-18.74 36.06-9.2 9.3-18.11 19.13-30.29 24.89-10.56 5-21.89 7.05-33.38 8.1-3.54.33-7.23-.65-10.82-1.17-15-2.2-27.22-9.64-37.51-20.51-1.7-1.8-3.18-3.86-3.06-6.59l.92-.81c6.09 6.69 11.83 13.81 20.61 17.69-2.68-5.76-2.14-11.42-1-17.22 1.05-5.6 3.5-10.63 5.51-15.85 3.52 3.25 6 7.57 10.19 10.58.24-4.29.46-8.07.68-11.85 5.8 13.26 7.9 26.58-5.38 39 14.7 4.73 28.88 4.12 43.12-1.1-9.82-3-16.44-9.53-21.22-18-5.05-8.95-8.63-18.57-12-28.24l4.84-2.36a26.26 26.26 0 0 0 16.53 7c2.35 1.54 4.81 2.92 7 4.65 10.94 8.57 16.2 19.46 12.74 34.76 17-11.82 32.55-23.26 41.71-41.3.28-.45.83-.93.09-1.38-.12-.08-.6.41-.91.64a81.15 81.15 0 0 1 -9.55 4.05c-12.22 4.58-23.76 1.89-35.24-2.58.88-.7 4.09.33 1.93-2.62-.36-1.79-1.76-1.55-3-1.54-6.83-6.57-13.66-13.14-23.05-16l-.1-1.11c7.91-2.19 15.91-4.08 23.7-6.64 16.54-5.43 39.7.44 48.46 18.48.17.36.63.59 2 1.76 6.15-28.24 7.41-55.28-3.16-82-2 17.93-10.47 31.48-25.62 41.23a138.81 138.81 0 0 1 -18 9.37c-9.17 4.17-18.21 8.58-28.1 10.87l-.27-.36c.34-1.19-.36-1.7-1.33-2-1.52-2.44-4.6-2.57-6.51-4.43.31-1.77-.58-3.77.85-5.29 6.83-7.28 10.08-16.73 14.66-25.27 9.86-18.39 35.16-34.42 58.36-26.19 1.44.51 3.1 1 4.2-.31 1.25-1.47-.31-2.79-.94-4-15.87-29.63-38.23-53.16-66.38-71.23-1-.66-1.95-1.25-3.48-.61 5.38 6.21 8.88 13.2 11.61 21 2.6 7.42 4.22 14.77 3.85 22.4-.77 16.2-5.68 31.51-11.5 46.5-3 7.72-6.33 15.31-9.73 22.86-1.52 3.35-2.49 7.23-6.27 9.07.91-4.78-1.75-5.63-5.63-5.08a9.62 9.62 0 0 0 -5.44 2.15c-3 2.85-4.82 1.35-6.6-1.24.91-4.29 1.06-8.59-.59-12.73-4.93-12.34-8.83-25-10.54-38.18-3-23.42 6.42-52 30.12-64.77a25.3 25.3 0 0 0 4.17-2.68c2.09-1.72 2.56-3.38-.57-4.64-4-1.6-7.84-3.73-11.95-4.92-14.93-4.3-30.32-5.48-45.77-6.12-25.59-1-50.29 3.6-74.46 11.61-.53.18-1.27.4-1 1.34a87.51 87.51 0 0 1 29.94 8.11c12.32 5.63 21.63 13.8 30.05 23.83 11 13.09 17.9 28.51 25 43.71 5.69 12.11 9.94 24.9 14.82 37.39-.2.86-.41 1.72-.61 2.58-1.41.53-2.64.42-2.83 3-.74 10.43-1.12 10.58-11.25 12.87a8.13 8.13 0 0 1 -1 .15 12 12 0 0 1 -6.85-3.81 30.09 30.09 0 0 0 -9.19-6.75 226.22 226.22 0 0 1 -43.01-24.46c-13.66-10-22.59-23.57-28.87-38.78-4.77-11.57-6.9-23.91-4.32-36.57 1.1-5.38 2.28-10.73 3.17-16.14.46-2.8-.2-4.58-3.71-2.74-5.16 2.68-10.59 4.83-15.69 7.6-47.17 25.53-79.24 65.12-103.78 111.7-.45.84-1.78 2 .21 2.77v.56c-1.89-.16-2.49 1.16-3.14 2.57-15 32.1-26.16 65.17-25.73 101.16 0 4.48.69 9 1.15 13.43.16 1.5.64 3-1.19 4.49-2.17-9.51-2.39-18.86-1.79-28.29 2.6-41.43 16.4-79.22 37.5-114.59 17.54-29.42 38.89-55.63 65.85-77a170.69 170.69 0 0 1 34.53-21.68c21.59-10 43.91-17.66 67.81-19.63 1.33-.11 3 .07 4.06-.42 13 0 25.9-.08 38.9-.08 2.62.59 4.94.53 7.48.86 8.71 1.13 17.51 1.75 25.85 4.9 14.77 5.57 27.5 14.34 39.92 24a182.11 182.11 0 0 1 41.67 45.87c7.6 11.83 13.52 24.29 17 38 1.29 5.17 1.22 10.12 2.16 15.49-.04 9.34-.98 18.71-.98 28.01z"/><path d="m154 141.91v-.56c2.41-1.77 5.11-3.26 7.17-5.37 11.76-12 27.25-16.8 42.52-21.59 11.2-3.51 23.06-3.61 34.66-1.62 14.37 2.47 29.12 3.5 42.7 9.47 5.37 2.36 9.9 6.74 16.5 5.89 1.42-.18 3.11 1.06 4.54 1.88 3.77 2.17 7.88 3.48 11.87 5.11 9.63 3.91 19.1 8.22 28.64 12.34 3.35 1.45 5.74 4.52 9.49 5.36 9.06 2 11.19 4.8 11.11 14.1-2.25 1.48-1.36 4.14-2.29 6.11a18.48 18.48 0 0 1 -7.32.85c-1.66-.22-3.39 0-4.31 1.76-2.34 4.61-6.71 5.24-11.06 5.18a37 37 0 0 0 -18.24 4.1 30.89 30.89 0 0 1 -10.33 3.49c-8.15 1-15.74 4.16-23.34 6.55-26 8.14-51.2 6.33-76.16-3-20.53-7.63-35.9-21.56-46.29-40.86-2.27-4.21-5.08-7.7-9.86-9.19z"/><path d="m370.08 213.92c-5.54-5.34-9.64-15.12-10-23-.1-2.29-1.5-4.4-1.18-6.79l3-.2c0 5.23.18 10.43 3.16 15.82 4.06-9.33 12.11-12.36 20.22-15.29a13.91 13.91 0 0 1 4.93 4.08c-4.58 9.25-9.65 17.88-22.25 17.21 1 1.77 1.64 2.88 2.28 4-.24.25.14 3.9-.16 4.17z"/><path d="m362 183.94-3 .2c0-.45.08-.9.13-1.36 1.63-.71 3-1.64 3.18-3.64 2.93-.18 2.24-3.26 3.7-4.62.66-.74 1.31-1.5 2-2.23 1.22-1.33 2.41-3.19 4.5-2.32 2.26.93 1.92 3.25 1.83 5.21-.13 2.65-1.71 5-1.35 7.79-3.74.38-7.49-.41-10.99.97z"/><path d="m362.23 179.14c-.16 2-1.55 2.93-3.18 3.64-1.36-3.63 2-6.34 1.87-9.75.93-2 0-4.63 2.29-6.11 3.5 1.25 1.65 3.23.71 5.1l-.77 1.62q-.45 2.76-.92 5.5zm-1.49 0a1 1 0 0 0 -.14-.41s-.23.05-.35.09a1 1 0 0 0 .14.41s.23-.02.35-.06z"/><path d="m423 160c-1.42 2.48-3.87 5.07.73 6.92 0 .37.07.74.1 1.11a14.51 14.51 0 0 1 -2 .09c-8.29-.66-10.43 2.24-7 9.65.7 1.52 1.6 2.91.73 4.63l-4.83 2.36c-4.09-1.39-3.28 2.41-4.41 4.16-.43-1.77.07-4.18-3-4-2.49.13-5.17-.67-6.27 2.91-.49 1.57-.39 4.16-3.18 4.23l-3.61-3.49a13.91 13.91 0 0 0 -4.93-4.08c-.81-1.92-1.92-2.56-4.19-1.91a17.15 17.15 0 0 1 -8.25.41c-.36-2.74 1.22-5.14 1.35-7.79.09-2 .43-4.28-1.83-5.21-2.09-.87-3.28 1-4.5 2.32-.67.73-1.32 1.49-2 2.23 2.26-5.67 3.36-11.25-1.32-16.37 3.36 2.86 5.91 1 8.22-1.52 1.16-1.26 3.52-2.47 2.68-4.23s-3.18-1-5-.7c-2.58.4-5.2 1-7.71-.41l3.3-2.83a8.13 8.13 0 0 0 1-.15c10.13-2.29 10.51-2.44 11.25-12.87.19-2.55 1.42-2.44 2.83-3 .44 2.57-.75 4.82-1.35 7.21-.77 3.06-2 6.46 2.21 8.3 1.1 1.35-2 4.83 2.1 4.47 1.15-.1 3.08-1.24 2.53-3.11-.77-2.58-2.65-2.33-4.65-1.33-.05-2.42-1.1-5.61.06-7.08 2-2.52 4.26 1.65 6.77 1.14a4 4 0 0 0 .85-.37c-.36-1.23-.71-2.46-1.06-3.69 1.31.21 2.59-.95 3.92-.08 1.79 2.59 3.65 4.09 6.61 1.24a9.62 9.62 0 0 1 5.44-2.15c3.88-.55 6.54.3 5.63 5.08.22 2.57.58 5.13.65 7.7.06 2.81 2.15 2.9 4 3.38 1.91 1.86 5 2 6.51 4.43a5.12 5.12 0 0 1 -5.15-.7 9.39 9.39 0 0 0 -4.4-2.13c-.86-.16-1.78-.24-2.21.57a1.53 1.53 0 0 0 .8 2.09c2.87 1.28 4 2.68 3 6.34-.59 2.15 2.07.65 3.08 0 2.11-1.32 2.86-4.66 6.22-4.16zm-9.64 20.13c-2.72-1.73-1.91-4.57-2.95-6.77-.43-.89-1-1.81-2.16-1.65a1.32 1.32 0 0 0 -1.08 1.86c2.34 5.39-1.93 2.62-4.22 2.86 2.19 4.57 5.22 5.77 10.38 3.71zm-15.45.82c-.11-1.65-.67-3-2.53-3a4.42 4.42 0 0 0 -4.84 3.93c-.24 1.74 1.67 2.18 3.19 2.34 2.37.22 3.63-1.05 4.15-3.22zm-16.7-8c-1.36.08-2.78.51-2.76 2.12 0 1.9.87 3.84 3.11 3.66 1.22-.1 3.39-.25 3.37-2.24s-1.83-2.99-3.75-3.57zm18-25.95c-1.56.24-3.93.05-3.63 1.72s3.45.91 4.66 2.88c.38.61 2-1 2.16-2 .24-2.53-2.01-2.07-3.23-2.6zm-21.91 13.88a2.76 2.76 0 0 0 -2.38 2.61c0 1.9 1.61 2.9 3.13 3.17s1.72-1.27 1.69-2.42a3.21 3.21 0 0 0 -2.44-3.36zm27.36-20.83c-3.18.25-5.74 1-7.44 3.51-.43.62.1 1.3.85 1.36 3 .22 4.7-1.85 6.45-3.8.09-.12.05-.31.14-1.07z"/><path d="m448 188.22-15.86 1.15a26.19 26.19 0 0 1 -16.53-7c.87-1.72 0-3.11-.73-4.63-3.44-7.41-1.3-10.31 7-9.65a14.51 14.51 0 0 0 2-.09c9.39 2.88 16.22 9.45 23.05 16a4.76 4.76 0 0 0 3 1.54c2.12 3.01-1.09 1.98-1.93 2.68z"/><path d="m395.37 194.37-1.5-2.33c2.79-.07 2.69-2.66 3.18-4.23 1.1-3.58 3.78-2.78 6.27-2.91 3.08-.15 2.58 2.26 3 4l-.09 4.17c-.22 3.78-.44 7.56-.68 11.85-4.2-2.98-6.66-7.3-10.18-10.55z"/><path d="m382 148c-4.19-1.84-3-5.24-2.21-8.3.6-2.39 1.79-4.64 1.35-7.21.2-.86.41-1.72.61-2.58q3.42 4.06 6.82 8.14c.35 1.23.7 2.46 1.06 3.69a4 4 0 0 1 -.85.37c-2.51.51-4.8-3.66-6.77-1.14-1.16 1.47-.11 4.66-.06 7.08z"/><path d="m422.7 159.65c-3.36-.5-4.11 2.84-6.22 4.16-1 .64-3.67 2.14-3.08 0 1-3.66-.12-5.06-3-6.34a1.53 1.53 0 0 1 -.8-2.09c.43-.81 1.35-.73 2.21-.57a9.39 9.39 0 0 1 4.4 2.13 5.12 5.12 0 0 0 5.15.7c.98.36 1.64.82 1.34 2.01z"/><path d="m449.89 185.6a4.76 4.76 0 0 1 -3-1.54c1.24-.01 2.64-.25 3 1.54z"/><path d="m360.74 179.17c-.12 0-.32.13-.35.09a1 1 0 0 1 -.14-.41c.12 0 .32-.13.35-.09a1 1 0 0 1 .14.41z"/><path d="m363.92 172-.77 1.62z"/><path d="m362.81 151.29c2.51 1.36 5.13.81 7.71.41 1.81-.28 4.16-1 5 .7s-1.52 3-2.68 4.23c-2.31 2.49-4.86 4.38-8.22 1.52-2.55-1.27-2.55-4.22-3.82-6.29-.89-1.44 1.29-.27 2.01-.57z"/><path d="m413.33 180.14c-5.16 2.06-8.19.82-10.41-3.7 2.29-.24 6.56 2.53 4.22-2.86a1.32 1.32 0 0 1 1.08-1.86c1.15-.16 1.73.76 2.16 1.65 1.04 2.2.23 5.04 2.95 6.77z"/><path d="m397.88 181c-.52 2.21-1.78 3.48-4.18 3.23-1.52-.16-3.43-.6-3.19-2.34a4.42 4.42 0 0 1 4.84-3.93c1.86.04 2.42 1.35 2.53 3.04z"/><path d="m381.18 172.92c1.92.58 3.7 1.41 3.72 3.54s-2.15 2.14-3.37 2.24c-2.24.18-3.09-1.76-3.11-3.66-.02-1.61 1.4-2.04 2.76-2.12z"/><path d="m399.17 147c1.22.56 3.47.1 3.19 2.55-.12 1.09-1.78 2.66-2.16 2-1.21-2-4.36-1.2-4.66-2.88s2.07-1.46 3.63-1.67z"/><path d="m377.3 160.88a3.21 3.21 0 0 1 2.44 3.36c0 1.15-.31 2.67-1.69 2.42s-3.15-1.27-3.13-3.17a2.76 2.76 0 0 1 2.38-2.61z"/><path d="m404.66 140.05c-.09.76-.05 1-.14 1.07-1.75 1.95-3.45 4-6.45 3.8-.75-.06-1.28-.74-.85-1.36 1.7-2.47 4.26-3.26 7.44-3.51z"/><path d="m382 148c2-1.05 3.91-1.28 4.68 1.31.55 1.87-1.38 3-2.53 3.11-4.1.36-1-3.12-2.1-4.47z"/><path d="m25.58 216.35c4.09-.26 7.09-.4 9-.4a33.94 33.94 0 0 1 8.12 1.14 28.09 28.09 0 0 1 7.53 2.91 21.75 21.75 0 0 1 8 8.22 20.18 20.18 0 0 1 -.5 20.89 28.29 28.29 0 0 1 -8.29 8.89 20.13 20.13 0 0 1 -8.44 3.49 62.13 62.13 0 0 1 -10.34.8 33.82 33.82 0 0 1 -3.86-.25 25 25 0 0 1 -3.86-.74q0 14.55.79 26.13.3 4.26 1.48 6.09a10.22 10.22 0 0 0 4.36 3.32v1.38q-4.56-.39-7.48-.54t-5.49-.15q-5.94 0-13.27.69v-1.48a17.32 17.32 0 0 0 5-3.66 7.61 7.61 0 0 0 2-5.05q.21-9.9.2-29.6 0-7.53-.2-15.35t-.59-15.15a15.69 15.69 0 0 0 -1.44-6.09 10.07 10.07 0 0 0 -4.7-4.3v-1.49q8.72.8 12.87.8 3.17 0 9.11-.5zm-2.58 19.55c0 2.61-.05 5.93-.05 9.95v11.59a23 23 0 0 1 4.35.59 16.23 16.23 0 0 0 3 .49 19.85 19.85 0 0 0 7-1.48 17.46 17.46 0 0 0 6.09-4.16 13.81 13.81 0 0 0 3-6.29 39 39 0 0 0 .94-9 16.73 16.73 0 0 0 -1.93-7.73 15.33 15.33 0 0 0 -4.8-5.74 16.93 16.93 0 0 0 -5.35-2.33 27.23 27.23 0 0 0 -6-.64 48.47 48.47 0 0 0 -4.95.4h-.4a12.56 12.56 0 0 0 -.5 4.35 20 20 0 0 1 -.1 2.38c-.2 2.49-.3 5.02-.3 7.62z"/><path d="m82.5 240.9c3.17-.2 5.55-.29 7.13-.29a35.85 35.85 0 0 1 6.88.74 19 19 0 0 1 6 2 15.79 15.79 0 0 1 6.34 5.79 13.58 13.58 0 0 1 -.1 14.6 17.6 17.6 0 0 1 -6.14 5.94.09.09 0 0 0 -.1.1 14.69 14.69 0 0 1 -3 1.29q1.29 1.68 3.66 5c2.25 3.23 4.19 5.9 5.85 8a79.57 79.57 0 0 0 5.24 6.08 27.51 27.51 0 0 0 5.74 4.85 11.26 11.26 0 0 0 5.75 1.78c.26 0 .72 0 1.38-.1.86-.07 1.62-.1 2.28-.1a3.26 3.26 0 0 1 1.29.25 2.63 2.63 0 0 1 .79.44q0 .6-1 1.14a11.21 11.21 0 0 1 -2.43.94 28.67 28.67 0 0 1 -2.92.65 16.46 16.46 0 0 1 -2.57.24 24 24 0 0 1 -8.57-1.48 25.43 25.43 0 0 1 -7-4 40.53 40.53 0 0 1 -5.5-5.35q-2.37-2.82-5.74-7.27a86.36 86.36 0 0 0 -8-9.71h-3.18a37.91 37.91 0 0 0 -4.25.3q0 9.1.59 18a7.89 7.89 0 0 0 1.24 4.27 7.54 7.54 0 0 0 3.51 2.22v1c-.59-.06-1-.1-1.19-.1l-5.69-.29c-1.22-.07-2.42-.1-3.61-.1-2.38 0-5.94.16-10.7.49v-1a12.47 12.47 0 0 0 3.92-2.47 5.18 5.18 0 0 0 1.6-3.56q.19-6.92.2-20.79 0-4.45-.15-9.75t-.42-11.65a10.64 10.64 0 0 0 -1.14-4.31 7.23 7.23 0 0 0 -3.81-2.92v-1.07q6.54.6 10.3.6 2.67 0 7.52-.4zm-2.17 20.1v7.62c.92 0 2.11 0 3.56-.1h2.28q7.92 0 10.89-2.92t3-9.75a11.92 11.92 0 0 0 -1.49-5.59 10.2 10.2 0 0 0 -7.82-5.6 42 42 0 0 0 -5.35-.29c-.85 0-2.27.06-4.25.2a9.92 9.92 0 0 0 -.4 2.67 16.64 16.64 0 0 1 -.1 2.08c-.23 2.44-.32 6.33-.32 11.68z"/><path d="m173.14 242.49a32.67 32.67 0 0 1 11 6.28 26.37 26.37 0 0 1 6.78 9.31 28.29 28.29 0 0 1 2.27 11.24 25.89 25.89 0 0 1 -2.68 11.68 29.12 29.12 0 0 1 -7.42 9.4 34.19 34.19 0 0 1 -11.09 6.14 41.21 41.21 0 0 1 -13.47 2.18 39.15 39.15 0 0 1 -13.36-2.28 35.45 35.45 0 0 1 -11.17-6.38 30.3 30.3 0 0 1 -7.47-9.41 24.42 24.42 0 0 1 -2.68-11.14 24.71 24.71 0 0 1 2.68-11.18 30 30 0 0 1 7.47-9.46 35.26 35.26 0 0 1 11.14-6.38 39.15 39.15 0 0 1 13.36-2.28 43.88 43.88 0 0 1 14.64 2.28zm-23.91 3.41a21 21 0 0 0 -7.38 4.75 22 22 0 0 0 -4.85 7.43 25.45 25.45 0 0 0 -1.73 9.55 29.71 29.71 0 0 0 1.78 10.25 28.93 28.93 0 0 0 4.9 8.66 23.08 23.08 0 0 0 7.43 5.94 20 20 0 0 0 9.15 2.18q10.5 0 17.18-6.14t6.68-16.63q0-12.87-6.68-20.25a22.14 22.14 0 0 0 -17.18-7.37 25.7 25.7 0 0 0 -9.3 1.63z"/><path d="m261.49 215.76a26.27 26.27 0 0 0 2.77.29q1.89 0 6.34-.29 3.86-.3 5.94-.4v1.19a8.05 8.05 0 0 0 -3.86 4.5 25.09 25.09 0 0 0 -1.49 7c-.19 2.51-.31 5.12-.34 7.82s-.05 6.14-.05 10.3v11.78c0 2.44 0 6-.1 10.59q-.1 9.41-.1 13.07 0 7.92.2 11.19l.1 1.09c.06 1.32.1 2.21.1 2.67a4 4 0 0 1 -.6 2.52 2.77 2.77 0 0 1 -2.27.75 3.88 3.88 0 0 1 -2.23-.94 10.74 10.74 0 0 1 -2.13-2.13l-51.28-59.2v20.39q0 13.76.79 29.3.3 6.93 5.84 9.41v1.34q-4.56-.4-7.47-.55c-2-.1-3.78-.15-5.5-.15-1.05 0-2 0-3 .1s-2.84.23-5.74.5v-1.39a10.45 10.45 0 0 0 4.06-3.46 9.82 9.82 0 0 0 1.58-5.35q.19-9.8.2-29.6c0-2.11 0-5.45.1-10s.1-8.22.1-10.59c0-4.56-.07-7.92-.2-10.1v-.69a16.5 16.5 0 0 0 -1.58-5.85 13.3 13.3 0 0 0 -4.36-4.75l-.49-1.38a12.26 12.26 0 0 1 1.38.1q4.46.49 6.88.64c1.62.1 3.29.18 5 .25l51.48 60.78v-18.51q0-7.53-.2-15.35t-.59-15.14v-.1a24.12 24.12 0 0 0 -1.09-6.54 9.55 9.55 0 0 0 -4.06-4.65v-1.22a54.35 54.35 0 0 1 5.87.76z"/><path d="m332.87 290.2a13.43 13.43 0 0 0 2.87 4.41 12.36 12.36 0 0 0 4.26 2.62v1.09q-3.27-.49-5.64-.69c-1.59-.13-3.11-.2-4.56-.2s-3.05.07-4.8.2-3.78.33-6.09.59v-1c0-.33.36-.89 1.09-1.68a4.77 4.77 0 0 0 1.49-2.67 6.93 6.93 0 0 0 -.2-1.54 2.75 2.75 0 0 0 -.4-1l-6.14-14.55c-2.7-.26-5.71-.4-9-.4-3.49 0-6.6.14-9.3.4l-7 15.74a7.83 7.83 0 0 0 -.89 3.17 3.55 3.55 0 0 0 1.38 2.77v.79c-1.78-.26-3.25-.43-4.4-.49s-2.33-.1-3.52-.1-2.64.05-4 .15-3 .28-5 .54l1-1.09a15.86 15.86 0 0 0 5.09-2.72 14 14 0 0 0 3.62-4.7l18.91-40a2.21 2.21 0 0 0 .19-1 6.65 6.65 0 0 0 -1.68-4.16 16.19 16.19 0 0 0 -4.35-3.66l-.3-.79c4 .26 7.65.4 11.09.4h3.56l3.76 8.31zm-19.87-18.2v-.2l-7-16.15-7.52 16.14v.2c1.58.06 4 .1 7.13.1s5.78-.04 7.39-.09z"/><path d="m381.28 244a22 22 0 0 0 -2.37 4.95q-.11.41-1 .69a4.88 4.88 0 0 1 -1.49.3 1.66 1.66 0 0 1 -1.58-.69 4.75 4.75 0 0 1 -.5-2 1.83 1.83 0 0 1 -.1-.5 2.07 2.07 0 0 0 -.89-1.43 3.56 3.56 0 0 0 -1.48-.55h-12.37l-.39 4.46c-.27 3.23-.4 7-.4 11.38 0 1.52 0 3.21.1 5v4.56q0 10.1.59 20.49a7 7 0 0 0 4.75 6.53v1c-.59-.06-1-.1-1.18-.1l-5.7-.29c-1.22-.07-2.42-.1-3.61-.1s-2.31 0-3.17 0-2.8.18-5.84.44h-.65v-1a9.23 9.23 0 0 0 3.27-2.47 6.11 6.11 0 0 0 1.28-3.66q.3-6.93.3-20.7 0-7.32-.05-12.62c0-3.53-.12-6.71-.25-9.55l-.1-3.47a75.08 75.08 0 0 0 -13.76 1 14 14 0 0 0 -5 2.38 4.72 4.72 0 0 0 -.59.4 13.37 13.37 0 0 1 -1.68 1.13 3.58 3.58 0 0 1 -1.79.45 3.16 3.16 0 0 1 -1.48-.35c-.46-.23-.69-.38-.69-.44a6.9 6.9 0 0 1 1.48-2.28 12.63 12.63 0 0 0 1.78-2.57l.6-.89a18.52 18.52 0 0 0 1.88-3.87h3.27a3.62 3.62 0 0 0 1.43 1 9.94 9.94 0 0 0 2.23.3q6.52.1 19.6.1 4.56 0 15.25-.4l4.75-.09a11.81 11.81 0 0 0 3.36-.7c.6-.2 1.16-.36 1.69-.49h2.67a16.75 16.75 0 0 1 -2.17 4.65z"/><path d="m392.62 297.73c-1.42.06-3.29.2-5.6.39v-.89a8.83 8.83 0 0 0 3.27-2.52 6.41 6.41 0 0 0 1.29-3.71q.19-6.93.19-20.69 0-4.67-.19-10.15c-.14-3.66-.3-7.41-.5-11.24a12.19 12.19 0 0 0 -1.09-4.5 8.24 8.24 0 0 0 -3.46-3.32v-.89q3.47.3 5.74.45c1.52.09 2.94.14 4.26.14 1.05 0 2.64-.06 4.75-.19l5.15-.3v.79a6 6 0 0 0 -3.12 3.12 16.37 16.37 0 0 0 -1.24 4.9q-.3 4-.3 12.77v8.22q0 6.83.6 20.49a7.36 7.36 0 0 0 4.75 6.63v.89c-.59-.06-1-.09-1.19-.09l-5.69-.3c-1.22-.07-2.43-.1-3.62-.1s-2.62.03-4 .1z"/><path d="m423.75 260.36q-2.78-5.51-5.84-11.24l-.2-.5a22.91 22.91 0 0 0 -2.72-4.25 13.14 13.14 0 0 0 -4.51-3.07l-.19-.89c1.71.13 2.9.2 3.56.2 3.1.26 5.35.39 6.73.39s3.47-.1 6.63-.3q1.4 0 2.88-.09l.49 1c-1.12.52-1.68 1.71-1.68 3.56a10.16 10.16 0 0 0 .79 4.16c1.06 2.57 2.18 5.15 3.37 7.72s2.8 6.1 4.85 10.59l1.19 2.58q2.17 4.74 7 14.45c.6-1.25 1.19-2.54 1.79-3.86q2.86-6.24 4-8.51c1.12-2.45 2.36-5.28 3.71-8.52s2.85-6.86 4.5-10.89l1.29-3.27a9.59 9.59 0 0 0 1.09-4.35 3.85 3.85 0 0 0 -.79-2.53 4.63 4.63 0 0 0 -3-1.23l.59-1.09q6.24.5 9.31.49c1 0 2.73-.06 5-.2l5.34-.29-.49.89a11.74 11.74 0 0 0 -4.46 3 32.15 32.15 0 0 0 -3.76 5.1q-1.78 3.36-3.46 7t-4.26 9.25l-2.18 4.75q-.88 2-3.86 8c-1.72 3.44-3.28 6.6-4.7 9.51s-3 6.27-4.71 10.1c0 .13-.24.32-.74.59a3.65 3.65 0 0 1 -1.73.4 3.05 3.05 0 0 1 -1.63-.45 2.41 2.41 0 0 1 -.94-.84q-1.4-3.27-3.57-7.67t-6.24-12.23q-2.67-5.25-3.56-7-2.11-4.97-4.89-10.46z"/><path d="m520.38 290.2a13.27 13.27 0 0 0 2.87 4.41 12.4 12.4 0 0 0 4.25 2.62v1.09q-3.27-.49-5.64-.69c-1.58-.13-3.1-.2-4.55-.2s-3.06.07-4.81.2-3.77.33-6.08.59v-1q0-.5 1.08-1.68a4.77 4.77 0 0 0 1.49-2.67 6.93 6.93 0 0 0 -.2-1.54 2.62 2.62 0 0 0 -.39-1l-6.14-14.55c-2.71-.26-5.71-.4-9-.4-3.5 0-6.6.14-9.31.4l-7 15.74a7.83 7.83 0 0 0 -.89 3.17 3.54 3.54 0 0 0 1.39 2.77v.79c-1.78-.26-3.25-.43-4.41-.49s-2.32-.1-3.51-.1-2.64.05-4 .15-3 .28-5 .54l1-1.09a15.92 15.92 0 0 0 5.1-2.72 14 14 0 0 0 3.61-4.7l18.91-40a2.21 2.21 0 0 0 .2-1 6.65 6.65 0 0 0 -1.68-4.16 16.39 16.39 0 0 0 -4.36-3.66l-.3-.79c4 .26 7.66.4 11.09.4h3.56l3.77 8.31zm-19.9-18.2v-.2l-6.93-16.14-7.55 16.13v.2c1.59.06 4 .1 7.13.1s5.76-.04 7.35-.09z"/><path d="m540.57 298.08c-1.58-.3-3.6-.78-6-1.44l-1.58-.4a4.31 4.31 0 0 1 -2.83-1.53 5.87 5.87 0 0 1 -.64-3l-.1-.5c-.13-.65-.26-1.43-.39-2.32a16.22 16.22 0 0 1 -.2-2.53 2.92 2.92 0 0 1 .69-1.78 2.72 2.72 0 0 1 2.28-.89 1.53 1.53 0 0 1 1.29.69 22.85 22.85 0 0 1 1.28 2.18 12.24 12.24 0 0 0 2 3.27 15.23 15.23 0 0 0 5.4 3.51 15.89 15.89 0 0 0 5.79 1.34 12.32 12.32 0 0 0 7.42-2.53 8.34 8.34 0 0 0 3.47-7.17 9.45 9.45 0 0 0 -3.27-7.18 58.85 58.85 0 0 0 -9.8-6.88c-2.37-1.39-4.29-2.57-5.74-3.57a35.1 35.1 0 0 1 -4.16-3.31 15.2 15.2 0 0 1 -3.17-4.11 10.57 10.57 0 0 1 -1.18-5 13.32 13.32 0 0 1 1.09-5.25 13.72 13.72 0 0 1 3.36-4.7 17.39 17.39 0 0 1 5.84-3.46 23 23 0 0 1 8.12-1.34 36.35 36.35 0 0 1 5.94.69 29.88 29.88 0 0 0 4.26.5.7.7 0 0 0 .29-.1 7.24 7.24 0 0 1 1.39-.5 9 9 0 0 1 2.08-.19 2.56 2.56 0 0 1 1.5.42c.3.23.45.45.45.65a45.58 45.58 0 0 0 .39 5c.2 2.12.3 3.67.3 4.66a1.63 1.63 0 0 1 -.44.94 1.9 1.9 0 0 1 -1.54.54 2.67 2.67 0 0 1 -2-.89 25.11 25.11 0 0 1 -2-2.57 7.58 7.58 0 0 0 -1.68-2.18 13.16 13.16 0 0 0 -4.75-2.52 18 18 0 0 0 -5-.75 8.62 8.62 0 0 0 -5.69 2.23 6.66 6.66 0 0 0 -2.63 5.2 8.57 8.57 0 0 0 3.07 6.48 62.35 62.35 0 0 0 9.41 6.68c2.44 1.59 4.43 2.91 6 4a32.94 32.94 0 0 1 4.45 3.67 17.82 17.82 0 0 1 3.42 4.55 12.38 12.38 0 0 1 1.24 5.31 14.62 14.62 0 0 1 -1.33 6 14.8 14.8 0 0 1 -4 5.24q-6 5.25-16.64 5.25a30.4 30.4 0 0 1 -5.46-.41z"/></g></svg>